<?xml version="1.0" standalone="no"?>
<!DOCTYPE svg PUBLIC "-//W3C//DTD SVG 1.1//EN" "http://www.w3.org/Graphics/SVG/1.1/DTD/svg11.dtd" >
<svg>
<metadata>
Created by FontForge 20120731 at Wed Sep  7 05:54:10 2016
 By Apache
</metadata>
<defs>
<font id="Lobster-Regular" horiz-adv-x="1368" >
  <font-face 
    font-family="Lobster"
    font-weight="400"
    font-stretch="normal"
    units-per-em="2048"
    panose-1="2 0 5 6 0 0 0 2 0 3"
    ascent="1638"
    descent="-410"
    bbox="-99 -512 1783 2048"
    underline-thickness="102"
    underline-position="-103"
    unicode-range="U+0102-1EF9"
  />
<missing-glyph horiz-adv-x="1659" 
d="M547 2048h1112l-549 -2560h-1110zM96 -430h948l517 2396h-949zM961 1094q0 57 -23.5 87.5t-65.5 30.5q-43 0 -71.5 -30t-28.5 -78q0 -32 17 -60.5t45 -42.5v-8q-23 -23 -49.5 -32t-49.5 -9q-43 0 -68.5 30.5t-25.5 80.5q0 46 20.5 86t57 69.5t86 46.5t106.5 17
q109 0 168.5 -48.5t59.5 -133.5q0 -56 -25 -99.5t-63 -80.5t-82 -71t-82 -72t-63 -84t-25 -107h-86q0 64 18.5 112.5t46 87.5t59.5 73t59.5 69t46 75t18.5 91zM809 389q0 -38 -22.5 -60t-59.5 -22q-38 0 -60 22t-22 60q0 37 22 59.5t60 22.5q37 0 59.5 -22.5t22.5 -59.5z
" />
    <glyph glyph-name=".notdef" horiz-adv-x="1659" 
d="M547 2048h1112l-549 -2560h-1110zM96 -430h948l517 2396h-949zM961 1094q0 57 -23.5 87.5t-65.5 30.5q-43 0 -71.5 -30t-28.5 -78q0 -32 17 -60.5t45 -42.5v-8q-23 -23 -49.5 -32t-49.5 -9q-43 0 -68.5 30.5t-25.5 80.5q0 46 20.5 86t57 69.5t86 46.5t106.5 17
q109 0 168.5 -48.5t59.5 -133.5q0 -56 -25 -99.5t-63 -80.5t-82 -71t-82 -72t-63 -84t-25 -107h-86q0 64 18.5 112.5t46 87.5t59.5 73t59.5 69t46 75t18.5 91zM809 389q0 -38 -22.5 -60t-59.5 -22q-38 0 -60 22t-22 60q0 37 22 59.5t60 22.5q37 0 59.5 -22.5t22.5 -59.5z
" />
    <glyph glyph-name="space" horiz-adv-x="444" 
 />
    <glyph glyph-name="exclam" horiz-adv-x="526" 
d="M201 473l156 1024l315 43l-297 -1067h-174zM392 152q0 -34 -12.5 -64t-34.5 -52t-51.5 -35t-63.5 -13t-63.5 13t-52 35t-35.5 52t-13 64t13 63t35.5 51t52 34.5t63.5 12.5t63.5 -12.5t51.5 -34.5t34.5 -51t12.5 -63z" />
    <glyph glyph-name="numbersign" horiz-adv-x="1350" 
d="M241 1008h211l75 371h150l-76 -371h265l75 371h150l-76 -371h199l-31 -158h-200l-51 -252h194l-31 -158h-195l-77 -382h-149l77 382h-265l-77 -382h-149l77 382h-215l31 158h216l51 252h-210zM518 598h265l51 252h-265z" />
    <glyph glyph-name="Abreve" unicode="&#x102;" 
d="M801 0l157 743q-78 36 -142.5 52t-131.5 22q-58 -125 -106.5 -257t-84 -256.5t-55.5 -233.5t-20 -189q0 -49 8.5 -74.5t19.5 -39.5q-41 0 -88.5 4t-89 24.5t-69 64.5t-27.5 124q0 68 21.5 163t61.5 204.5t95 229t123 236.5q-97 -6 -158.5 -29.5t-81.5 -76.5
q8 0 17.5 -20.5t9.5 -43.5q0 -37 -33.5 -58.5t-81.5 -21.5q-27 0 -50 7.5t-40 22t-27 37t-10 52.5q0 52 31.5 98t87.5 80t132.5 54t166.5 20q42 0 107 -6q78 123 165 232.5t179 192t185 131t183 48.5q36 0 80.5 -6t81.5 -23l-321 -1507h-295zM1096 1391q-46 -25 -93.5 -71.5
t-94 -110t-92.5 -141t-89 -163.5q62 -12 126 -29.5t124 -41.5zM1689 1953q-9 -60 -46.5 -111.5t-95.5 -90t-132.5 -60t-157.5 -21.5q-153 0 -232.5 71.5t-79.5 211.5h183q0 -82 42 -126t119 -44q42 0 80.5 13.5t69 36.5t50 54t24.5 66h176z" />
    <glyph glyph-name="Etilde" unicode="&#x1ebc;" horiz-adv-x="940" 
d="M991 348q-41 -90 -104.5 -161t-143 -121t-169.5 -76.5t-183 -26.5q-99 0 -170.5 29.5t-117 79.5t-67.5 115t-22 137q0 81 26 165t74.5 157.5t119 129t159.5 78.5q-66 48 -95.5 112.5t-29.5 133.5q0 79 33.5 157.5t93 141.5t142 102t180.5 39q61 0 114.5 -16.5t93.5 -48.5
t62.5 -80t22.5 -111q0 -46 -12 -85t-33 -67.5t-48.5 -44.5t-58.5 -16q-56 0 -96 55q18 6 34.5 25t29 44t19.5 54t7 56q0 31 -10 53t-25.5 35.5t-36 19.5t-41.5 6q-46 0 -84.5 -25t-66 -65.5t-43 -92.5t-15.5 -106q0 -45 11.5 -88t36.5 -79.5t64.5 -64t94.5 -42.5
q-55 -12 -103.5 -40t-89 -66.5t-72.5 -85.5t-54.5 -97.5t-34.5 -101.5t-12 -98q0 -43 11 -81t34 -66t60 -44t89 -16q47 0 101.5 13t106.5 39.5t97 65.5t74 91zM1242 1882q-8 -36 -38.5 -72.5t-75.5 -66t-101.5 -48t-114.5 -18.5q-51 0 -95 12t-85 26t-81 26t-83 12
q-76 0 -135 -53l-12 4q49 99 136.5 150t205.5 51q55 0 98 -10.5t81.5 -23.5t76 -23.5t82.5 -10.5q38 0 72 12t57 35z" />
    <glyph glyph-name="Edotbelow" unicode="&#x1eb8;" horiz-adv-x="940" 
d="M991 348q-41 -90 -104.5 -161t-143 -121t-169.5 -76.5t-183 -26.5q-99 0 -170.5 29.5t-117 79.5t-67.5 115t-22 137q0 81 26 165t74.5 157.5t119 129t159.5 78.5q-66 48 -95.5 112.5t-29.5 133.5q0 79 33.5 157.5t93 141.5t142 102t180.5 39q61 0 114.5 -16.5t93.5 -48.5
t62.5 -80t22.5 -111q0 -46 -12 -85t-33 -67.5t-48.5 -44.5t-58.5 -16q-56 0 -96 55q18 6 34.5 25t29 44t19.5 54t7 56q0 31 -10 53t-25.5 35.5t-36 19.5t-41.5 6q-46 0 -84.5 -25t-66 -65.5t-43 -92.5t-15.5 -106q0 -45 11.5 -88t36.5 -79.5t64.5 -64t94.5 -42.5
q-55 -12 -103.5 -40t-89 -66.5t-72.5 -85.5t-54.5 -97.5t-34.5 -101.5t-12 -98q0 -43 11 -81t34 -66t60 -44t89 -16q47 0 101.5 13t106.5 39.5t97 65.5t74 91zM151 -311q0 34 12.5 63.5t34.5 52t51.5 35.5t63.5 13t63.5 -13t52 -35.5t35.5 -52t13 -63.5t-13 -63.5
t-35.5 -51.5t-52 -34.5t-63.5 -12.5t-63.5 12.5t-51.5 34.5t-34.5 51.5t-12.5 63.5z" />
    <glyph glyph-name="Idotbelow" unicode="&#x1eca;" horiz-adv-x="768" 
d="M193 0l296 1391q-136 -56 -211 -168t-75 -279q0 -39 4.5 -63.5t9.5 -39t9.5 -22.5t4.5 -14q-53 0 -94 10.5t-68.5 33.5t-42 61t-14.5 94q0 68 29.5 134t81 125t121 109t149 86.5t166 57t172.5 20.5q23 0 42.5 -1t39.5 -3l-326 -1532h-294zM120 -311q0 34 12.5 63.5
t34.5 52t51.5 35.5t63.5 13t63.5 -13t52 -35.5t35.5 -52t13 -63.5t-13 -63.5t-35.5 -51.5t-52 -34.5t-63.5 -12.5t-63.5 12.5t-51.5 34.5t-34.5 51.5t-12.5 63.5z" />
    <glyph glyph-name="Odotbelow" unicode="&#x1ecc;" horiz-adv-x="1362" 
d="M883 1343q-47 -28 -91.5 -87.5t-84.5 -139t-73.5 -173t-58 -190t-38 -190t-13.5 -172.5q0 -52 7 -95.5t21 -75t36.5 -49t54.5 -17.5q52 0 103.5 40t99.5 109t89 160.5t71 195t47.5 212.5t17.5 212q0 89 -10.5 156.5t-39.5 112.5t-80 67.5t-132 22.5q-117 0 -224 -36.5
t-188.5 -105t-129.5 -166t-48 -219.5q0 -30 3.5 -48.5t7 -30t7 -18.5t3.5 -13q-98 0 -152.5 39t-54.5 133q0 72 31 141t87 131.5t132.5 115t168.5 90.5t195 59.5t211 21.5q135 0 227.5 -39t149.5 -108.5t82.5 -166t25.5 -210.5q0 -99 -18.5 -213.5t-58 -228t-100 -219
t-144.5 -186t-192 -129t-242 -48.5q-81 0 -148 22t-116 71t-76 127.5t-27 190.5q0 83 15.5 186.5t46.5 210t77.5 208.5t108 181t138.5 127t169 48q26 0 52 -3t55 -14zM371 -311q0 34 12.5 63.5t34.5 52t51.5 35.5t63.5 13t63.5 -13t52 -35.5t35.5 -52t13 -63.5t-13 -63.5
t-35.5 -51.5t-52 -34.5t-63.5 -12.5t-63.5 12.5t-51.5 34.5t-34.5 51.5t-12.5 63.5z" />
    <glyph glyph-name="Udotbelow" unicode="&#x1ee4;" horiz-adv-x="1466" 
d="M1260 1532h289l-136 -639q-33 -156 -66 -283.5t-73.5 -228.5t-91.5 -175t-119 -123t-156.5 -73t-203.5 -24q-111 0 -186.5 21.5t-122 63t-67 102t-20.5 138.5q0 77 14 168t37 195.5t53.5 223t63.5 249.5l68 270q-84 -22 -151 -63.5t-114 -101t-72.5 -136.5t-25.5 -170
q0 -41 4.5 -65.5t10 -39t10 -22t4.5 -14.5q-51 0 -92 10t-69 32t-43 58t-15 88q0 72 30 140.5t82.5 129t125.5 110.5t159 86.5t182 56.5t195 20q26 0 46 -2t52 -8q-48 -176 -86.5 -318.5t-69.5 -256.5t-53.5 -202.5t-37 -158t-22 -123t-7.5 -96.5q0 -88 31.5 -136.5
t109.5 -48.5q44 0 80 6.5t68 29.5t60.5 69t58 125.5t61 197t68.5 285.5zM471 -311q0 34 12.5 63.5t34.5 52t51.5 35.5t63.5 13t63.5 -13t52 -35.5t35.5 -52t13 -63.5t-13 -63.5t-35.5 -51.5t-52 -34.5t-63.5 -12.5t-63.5 12.5t-51.5 34.5t-34.5 51.5t-12.5 63.5z" />
    <glyph glyph-name="Ygrave" unicode="&#x1ef2;" horiz-adv-x="1270" 
d="M569 0l136 631l-197 768q-144 -54 -224.5 -169t-80.5 -286q0 -39 4.5 -63.5t9.5 -39t9.5 -22.5t4.5 -14q-53 0 -94 10.5t-68.5 33.5t-42 61t-14.5 94q0 68 29.5 134t81 125t121 109t149 86.5t166 57t172.5 20.5q23 0 42.5 -1t39.5 -3l178 -733l303 727h136l-398 -895
l-135 -631h-328zM986 1661l-121 387h215l59 -387h-153z" />
    <glyph glyph-name="Ytilde" unicode="&#x1ef8;" horiz-adv-x="1270" 
d="M569 0l136 631l-197 768q-144 -54 -224.5 -169t-80.5 -286q0 -39 4.5 -63.5t9.5 -39t9.5 -22.5t4.5 -14q-53 0 -94 10.5t-68.5 33.5t-42 61t-14.5 94q0 68 29.5 134t81 125t121 109t149 86.5t166 57t172.5 20.5q23 0 42.5 -1t39.5 -3l178 -733l303 727h136l-398 -895
l-135 -631h-328zM1453 1882q-8 -36 -38.5 -72.5t-75.5 -66t-101.5 -48t-114.5 -18.5q-51 0 -95 12t-85 26t-81 26t-83 12q-76 0 -135 -53l-12 4q49 99 136.5 150t205.5 51q55 0 98 -10.5t81.5 -23.5t76 -23.5t82.5 -10.5q38 0 72 12t57 35z" />
    <glyph glyph-name="abreve" unicode="&#x103;" horiz-adv-x="1077" 
d="M1163 367q-29 -83 -63 -144t-70.5 -103t-74.5 -68t-74 -40t-69 -19t-60 -5q-87 0 -138.5 47.5t-62.5 140.5q-25 -35 -55 -68.5t-67 -60t-82.5 -43t-100.5 -16.5q-53 0 -102 17t-87 56t-61 102t-23 154q0 70 14 150t43 160t72.5 153.5t102 130t132.5 90t163 33.5
q87 0 126.5 -30t39.5 -74v-15l22 109h295l-147 -696q-5 -17 -7 -33.5t-2 -32.5q0 -88 84 -88q30 0 55.5 15.5t46.5 41.5t37 61.5t27 74.5h86zM647 829q0 9 -4 22.5t-13.5 26t-25.5 21t-41 8.5q-43 0 -81.5 -28t-70.5 -74.5t-57 -105.5t-42.5 -121.5t-26.5 -123t-9 -108.5
q0 -59 11 -91t26.5 -47.5t33.5 -18.5t32 -3q23 0 48.5 11.5t49 34t43 56.5t29.5 79zM1053 1490q-9 -60 -46.5 -111.5t-95.5 -90t-132.5 -60t-157.5 -21.5q-153 0 -232.5 71.5t-79.5 211.5h183q0 -82 42 -126t119 -44q42 0 80.5 13.5t69 36.5t50 54t24.5 66h176z" />
    <glyph glyph-name="etilde" unicode="&#x1ebd;" horiz-adv-x="786" 
d="M856 367q-43 -72 -98.5 -140t-125 -121t-154 -85.5t-185.5 -32.5q-73 0 -132 18.5t-101 57.5t-64.5 100.5t-22.5 148.5q0 59 12 136t38 158t69 159t104 139.5t143 99t187 37.5q69 0 112.5 -16.5t69 -43.5t35 -62.5t9.5 -73.5q0 -89 -39 -165.5t-104.5 -133.5t-150.5 -92
t-177 -41q-2 -23 -3.5 -43.5t-1.5 -38.5q0 -52 9.5 -85.5t28 -52.5t46 -26.5t64.5 -7.5q61 0 110.5 16t92.5 44t81.5 66t77.5 81h70zM297 512q58 4 112 33t95 75.5t65.5 106t24.5 123.5q0 38 -11 61t-40 23q-39 0 -76.5 -37.5t-70.5 -97.5t-58.5 -135.5t-40.5 -151.5z
M921 1370q-8 -36 -38.5 -72.5t-75.5 -66t-101 -48t-114 -18.5q-51 0 -95.5 12t-85.5 26t-80.5 26t-82.5 12q-77 0 -135 -53l-13 4q50 99 137.5 150t204.5 51q55 0 98.5 -10.5t81.5 -23.5t75.5 -23.5t82.5 -10.5q38 0 72 12t57 35z" />
    <glyph glyph-name="edotbelow" unicode="&#x1eb9;" horiz-adv-x="786" 
d="M856 367q-43 -72 -98.5 -140t-125 -121t-154 -85.5t-185.5 -32.5q-73 0 -132 18.5t-101 57.5t-64.5 100.5t-22.5 148.5q0 59 12 136t38 158t69 159t104 139.5t143 99t187 37.5q69 0 112.5 -16.5t69 -43.5t35 -62.5t9.5 -73.5q0 -89 -39 -165.5t-104.5 -133.5t-150.5 -92
t-177 -41q-2 -23 -3.5 -43.5t-1.5 -38.5q0 -52 9.5 -85.5t28 -52.5t46 -26.5t64.5 -7.5q61 0 110.5 16t92.5 44t81.5 66t77.5 81h70zM297 512q58 4 112 33t95 75.5t65.5 106t24.5 123.5q0 38 -11 61t-40 23q-39 0 -76.5 -37.5t-70.5 -97.5t-58.5 -135.5t-40.5 -151.5z
M51 -311q0 34 12.5 63.5t34.5 52t51.5 35.5t63.5 13t63.5 -13t52 -35.5t35.5 -52t13 -63.5t-13 -63.5t-35.5 -51.5t-52 -34.5t-63.5 -12.5t-63.5 12.5t-51.5 34.5t-34.5 51.5t-12.5 63.5z" />
    <glyph glyph-name="idotbelow" unicode="&#x1ecb;" horiz-adv-x="547" 
d="M-99 -311q0 34 12.5 63.5t34.5 52t51.5 35.5t63.5 13t63.5 -13t52 -35.5t35.5 -52t13 -63.5t-13 -63.5t-35.5 -51.5t-52 -34.5t-63.5 -12.5t-63.5 12.5t-51.5 34.5t-34.5 51.5t-12.5 63.5zM506 1296q0 -34 -13 -63.5t-35.5 -51t-52 -34t-63.5 -12.5t-63.5 12.5t-51.5 34
t-34.5 51t-12.5 63.5t12.5 63.5t34.5 52t51.5 35.5t63.5 13t63.5 -13t52 -35.5t35.5 -52t13 -63.5zM633 367q-29 -83 -64.5 -144t-74 -103t-79 -68t-78.5 -40t-72.5 -19t-61.5 -5q-46 0 -86 14t-69.5 44t-46.5 76t-17 111q0 28 4 61.5t12 72.5l139 657h295l-147 -696
q-5 -17 -6.5 -33.5t-1.5 -32.5q0 -43 20 -59.5t63 -16.5q30 0 58.5 13.5t52.5 37.5t43 57.5t31 72.5h86z" />
    <glyph glyph-name="odotbelow" unicode="&#x1ecd;" horiz-adv-x="887" 
d="M1139 778q-60 -63 -155 -107t-208 -63q-12 -142 -54.5 -256t-107.5 -194t-149 -123t-178 -43q-72 0 -132 17.5t-103.5 56t-68 100t-24.5 149.5q0 60 12.5 136.5t39.5 157.5t71 158.5t106 138.5t144.5 98.5t187.5 37.5q262 0 262 -327v-2q5 -2 10 -2h13q36 0 77.5 10.5
t83 27.5t81.5 39.5t73 45.5zM606 602q-32 8 -43.5 31.5t-11.5 54.5q0 43 17 70.5t46 40.5q-2 33 -6.5 55.5t-13.5 37t-22.5 20.5t-34.5 6q-37 0 -71 -28.5t-64.5 -75.5t-55.5 -107.5t-43.5 -124.5t-28.5 -126.5t-10 -113.5t5.5 -83t18 -50.5t32.5 -25.5t49 -7q37 0 74.5 33
t69.5 90t56.5 135t36.5 168zM51 -311q0 34 12.5 63.5t34.5 52t51.5 35.5t63.5 13t63.5 -13t52 -35.5t35.5 -52t13 -63.5t-13 -63.5t-35.5 -51.5t-52 -34.5t-63.5 -12.5t-63.5 12.5t-51.5 34.5t-34.5 51.5t-12.5 63.5z" />
    <glyph glyph-name="udotbelow" unicode="&#x1ee5;" horiz-adv-x="1034" 
d="M1120 367q-29 -83 -63 -144t-70.5 -103t-74.5 -68t-74 -40t-69 -19t-60 -5q-88 0 -140 48.5t-63 145.5q-39 -63 -79 -101t-79 -59t-76 -27.5t-69 -6.5q-46 0 -86 14t-69.5 44t-46.5 76t-17 111q0 28 4 61.5t12 72.5l139 657h295l-147 -696q-6 -32 -6 -58q0 -35 13 -59.5
t48 -24.5q30 0 55 13.5t45.5 37.5t36 57.5t27.5 72.5l139 657h295l-147 -696q-5 -17 -7 -33.5t-2 -32.5q0 -43 20.5 -59.5t63.5 -16.5q30 0 55.5 13.5t46.5 37.5t37 57.5t27 72.5h86zM161 -311q0 34 12.5 63.5t34.5 52t51.5 35.5t63.5 13t63.5 -13t52 -35.5t35.5 -52
t13 -63.5t-13 -63.5t-35.5 -51.5t-52 -34.5t-63.5 -12.5t-63.5 12.5t-51.5 34.5t-34.5 51.5t-12.5 63.5z" />
    <glyph glyph-name="ygrave" unicode="&#x1ef3;" horiz-adv-x="1034" 
d="M688 -164q-22 -110 -63.5 -178t-92.5 -106t-106.5 -51t-106.5 -13q-47 0 -88.5 12.5t-72.5 37t-49.5 62t-18.5 87.5q0 64 30.5 113t78.5 85.5t107.5 62.5t117.5 44l25 110q-33 -36 -66 -58.5t-64 -34.5t-60 -16.5t-56 -4.5q-46 0 -86 14t-69.5 44t-46.5 76t-17 111
q0 28 4 61.5t12 72.5l139 657h295l-147 -696q-6 -26 -6 -52q0 -18 3 -34t10 -28.5t18.5 -20t29.5 -7.5q28 0 52.5 12.5t44.5 35t35.5 53.5t27.5 67l143 670h295l-203 -950q47 16 85 38.5t69.5 57t57 82.5t46.5 115h86q-31 -102 -73.5 -170t-90.5 -111.5t-99 -66.5t-99 -35z
M403 -111q-40 -15 -76 -32.5t-63.5 -38.5t-44 -46.5t-16.5 -56.5q0 -11 4 -23t12.5 -22t21.5 -16t31 -6q32 0 65.5 44.5t53.5 137.5zM493 1149l-121 387h215l60 -387h-154z" />
    <glyph glyph-name="ytilde" unicode="&#x1ef9;" horiz-adv-x="1034" 
d="M688 -164q-22 -110 -63.5 -178t-92.5 -106t-106.5 -51t-106.5 -13q-47 0 -88.5 12.5t-72.5 37t-49.5 62t-18.5 87.5q0 64 30.5 113t78.5 85.5t107.5 62.5t117.5 44l25 110q-33 -36 -66 -58.5t-64 -34.5t-60 -16.5t-56 -4.5q-46 0 -86 14t-69.5 44t-46.5 76t-17 111
q0 28 4 61.5t12 72.5l139 657h295l-147 -696q-6 -26 -6 -52q0 -18 3 -34t10 -28.5t18.5 -20t29.5 -7.5q28 0 52.5 12.5t44.5 35t35.5 53.5t27.5 67l143 670h295l-203 -950q47 16 85 38.5t69.5 57t57 82.5t46.5 115h86q-31 -102 -73.5 -170t-90.5 -111.5t-99 -66.5t-99 -35z
M403 -111q-40 -15 -76 -32.5t-63.5 -38.5t-44 -46.5t-16.5 -56.5q0 -11 4 -23t12.5 -22t21.5 -16t31 -6q32 0 65.5 44.5t53.5 137.5zM1001 1370q-8 -36 -38.5 -72.5t-75.5 -66t-101 -48t-114 -18.5q-51 0 -95.5 12t-85.5 26t-80.5 26t-82.5 12q-77 0 -135 -53l-13 4
q50 99 137.5 150t204.5 51q55 0 98.5 -10.5t81.5 -23.5t75.5 -23.5t82.5 -10.5q38 0 72 12t57 35z" />
    <glyph glyph-name="Abreveacute" unicode="&#x1eae;" 
d="M801 0l157 743q-78 36 -142.5 52t-131.5 22q-58 -125 -106.5 -257t-84 -256.5t-55.5 -233.5t-20 -189q0 -49 8.5 -74.5t19.5 -39.5q-41 0 -88.5 4t-89 24.5t-69 64.5t-27.5 124q0 68 21.5 163t61.5 204.5t95 229t123 236.5q-97 -6 -158.5 -29.5t-81.5 -76.5
q8 0 17.5 -20.5t9.5 -43.5q0 -37 -33.5 -58.5t-81.5 -21.5q-27 0 -50 7.5t-40 22t-27 37t-10 52.5q0 52 31.5 98t87.5 80t132.5 54t166.5 20q42 0 107 -6q78 123 165 232.5t179 192t185 131t183 48.5q36 0 80.5 -6t81.5 -23l-321 -1507h-295zM1096 1391q-46 -25 -93.5 -71.5
t-94 -110t-92.5 -141t-89 -163.5q62 -12 126 -29.5t124 -41.5zM1637 1840q-7 -50 -38.5 -93.5t-80.5 -75.5t-111.5 -50t-131.5 -18q-129 0 -195.5 60t-66.5 177h153q0 -69 35.5 -105.5t99.5 -36.5q36 0 68 11t57.5 30.5t42.5 45t21 55.5h147zM1253 1774l127 274h161
l-178 -274h-110z" />
    <glyph glyph-name="Abrevedotbelow" unicode="&#x1eb6;" 
d="M801 0l157 743q-78 36 -142.5 52t-131.5 22q-58 -125 -106.5 -257t-84 -256.5t-55.5 -233.5t-20 -189q0 -49 8.5 -74.5t19.5 -39.5q-41 0 -88.5 4t-89 24.5t-69 64.5t-27.5 124q0 68 21.5 163t61.5 204.5t95 229t123 236.5q-97 -6 -158.5 -29.5t-81.5 -76.5
q8 0 17.5 -20.5t9.5 -43.5q0 -37 -33.5 -58.5t-81.5 -21.5q-27 0 -50 7.5t-40 22t-27 37t-10 52.5q0 52 31.5 98t87.5 80t132.5 54t166.5 20q42 0 107 -6q78 123 165 232.5t179 192t185 131t183 48.5q36 0 80.5 -6t81.5 -23l-321 -1507h-295zM1096 1391q-46 -25 -93.5 -71.5
t-94 -110t-92.5 -141t-89 -163.5q62 -12 126 -29.5t124 -41.5zM1689 1953q-9 -60 -46.5 -111.5t-95.5 -90t-132.5 -60t-157.5 -21.5q-153 0 -232.5 71.5t-79.5 211.5h183q0 -82 42 -126t119 -44q42 0 80.5 13.5t69 36.5t50 54t24.5 66h176zM601 -311q0 34 12.5 63.5t34.5 52
t51.5 35.5t63.5 13t63.5 -13t52 -35.5t35.5 -52t13 -63.5t-13 -63.5t-35.5 -51.5t-52 -34.5t-63.5 -12.5t-63.5 12.5t-51.5 34.5t-34.5 51.5t-12.5 63.5z" />
    <glyph glyph-name="Adotbelow" unicode="&#x1ea0;" 
d="M801 0l157 743q-78 36 -142.5 52t-131.5 22q-58 -125 -106.5 -257t-84 -256.5t-55.5 -233.5t-20 -189q0 -49 8.5 -74.5t19.5 -39.5q-41 0 -88.5 4t-89 24.5t-69 64.5t-27.5 124q0 68 21.5 163t61.5 204.5t95 229t123 236.5q-97 -6 -158.5 -29.5t-81.5 -76.5
q8 0 17.5 -20.5t9.5 -43.5q0 -37 -33.5 -58.5t-81.5 -21.5q-27 0 -50 7.5t-40 22t-27 37t-10 52.5q0 52 31.5 98t87.5 80t132.5 54t166.5 20q42 0 107 -6q78 123 165 232.5t179 192t185 131t183 48.5q36 0 80.5 -6t81.5 -23l-321 -1507h-295zM1096 1391q-46 -25 -93.5 -71.5
t-94 -110t-92.5 -141t-89 -163.5q62 -12 126 -29.5t124 -41.5zM601 -311q0 34 12.5 63.5t34.5 52t51.5 35.5t63.5 13t63.5 -13t52 -35.5t35.5 -52t13 -63.5t-13 -63.5t-35.5 -51.5t-52 -34.5t-63.5 -12.5t-63.5 12.5t-51.5 34.5t-34.5 51.5t-12.5 63.5z" />
    <glyph glyph-name="Abrevegrave" unicode="&#x1eb0;" 
d="M801 0l157 743q-78 36 -142.5 52t-131.5 22q-58 -125 -106.5 -257t-84 -256.5t-55.5 -233.5t-20 -189q0 -49 8.5 -74.5t19.5 -39.5q-41 0 -88.5 4t-89 24.5t-69 64.5t-27.5 124q0 68 21.5 163t61.5 204.5t95 229t123 236.5q-97 -6 -158.5 -29.5t-81.5 -76.5
q8 0 17.5 -20.5t9.5 -43.5q0 -37 -33.5 -58.5t-81.5 -21.5q-27 0 -50 7.5t-40 22t-27 37t-10 52.5q0 52 31.5 98t87.5 80t132.5 54t166.5 20q42 0 107 -6q78 123 165 232.5t179 192t185 131t183 48.5q36 0 80.5 -6t81.5 -23l-321 -1507h-295zM1096 1391q-46 -25 -93.5 -71.5
t-94 -110t-92.5 -141t-89 -163.5q62 -12 126 -29.5t124 -41.5zM1637 1840q-7 -50 -38.5 -93.5t-80.5 -75.5t-111.5 -50t-131.5 -18q-129 0 -195.5 60t-66.5 177h153q0 -69 35.5 -105.5t99.5 -36.5q36 0 68 11t57.5 30.5t42.5 45t21 55.5h147zM1274 1772l-92 275h165l39 -275
h-112z" />
    <glyph glyph-name="Acircumflexacute" unicode="&#x1ea4;" 
d="M801 0l157 743q-78 36 -142.5 52t-131.5 22q-58 -125 -106.5 -257t-84 -256.5t-55.5 -233.5t-20 -189q0 -49 8.5 -74.5t19.5 -39.5q-41 0 -88.5 4t-89 24.5t-69 64.5t-27.5 124q0 68 21.5 163t61.5 204.5t95 229t123 236.5q-97 -6 -158.5 -29.5t-81.5 -76.5
q8 0 17.5 -20.5t9.5 -43.5q0 -37 -33.5 -58.5t-81.5 -21.5q-27 0 -50 7.5t-40 22t-27 37t-10 52.5q0 52 31.5 98t87.5 80t132.5 54t166.5 20q42 0 107 -6q78 123 165 232.5t179 192t185 131t183 48.5q36 0 80.5 -6t81.5 -23l-321 -1507h-295zM1096 1391q-46 -25 -93.5 -71.5
t-94 -110t-92.5 -141t-89 -163.5q62 -12 126 -29.5t124 -41.5zM1414 1661l-66 147l-226 -147h-120l365 285h36l103 -285h-92zM1493 1774l127 274h141l-178 -274h-90z" />
    <glyph glyph-name="Acircumflexdotbelow" unicode="&#x1eac;" 
d="M801 0l157 743q-78 36 -142.5 52t-131.5 22q-58 -125 -106.5 -257t-84 -256.5t-55.5 -233.5t-20 -189q0 -49 8.5 -74.5t19.5 -39.5q-41 0 -88.5 4t-89 24.5t-69 64.5t-27.5 124q0 68 21.5 163t61.5 204.5t95 229t123 236.5q-97 -6 -158.5 -29.5t-81.5 -76.5
q8 0 17.5 -20.5t9.5 -43.5q0 -37 -33.5 -58.5t-81.5 -21.5q-27 0 -50 7.5t-40 22t-27 37t-10 52.5q0 52 31.5 98t87.5 80t132.5 54t166.5 20q42 0 107 -6q78 123 165 232.5t179 192t185 131t183 48.5q36 0 80.5 -6t81.5 -23l-321 -1507h-295zM1096 1391q-46 -25 -93.5 -71.5
t-94 -110t-92.5 -141t-89 -163.5q62 -12 126 -29.5t124 -41.5zM1498 1661l-123 164l-321 -164h-90l434 387h43l123 -387h-66zM601 -311q0 34 12.5 63.5t34.5 52t51.5 35.5t63.5 13t63.5 -13t52 -35.5t35.5 -52t13 -63.5t-13 -63.5t-35.5 -51.5t-52 -34.5t-63.5 -12.5
t-63.5 12.5t-51.5 34.5t-34.5 51.5t-12.5 63.5z" />
    <glyph glyph-name="Acircumflexgrave" unicode="&#x1ea6;" 
d="M801 0l157 743q-78 36 -142.5 52t-131.5 22q-58 -125 -106.5 -257t-84 -256.5t-55.5 -233.5t-20 -189q0 -49 8.5 -74.5t19.5 -39.5q-41 0 -88.5 4t-89 24.5t-69 64.5t-27.5 124q0 68 21.5 163t61.5 204.5t95 229t123 236.5q-97 -6 -158.5 -29.5t-81.5 -76.5
q8 0 17.5 -20.5t9.5 -43.5q0 -37 -33.5 -58.5t-81.5 -21.5q-27 0 -50 7.5t-40 22t-27 37t-10 52.5q0 52 31.5 98t87.5 80t132.5 54t166.5 20q42 0 107 -6q78 123 165 232.5t179 192t185 131t183 48.5q36 0 80.5 -6t81.5 -23l-321 -1507h-295zM1096 1391q-46 -25 -93.5 -71.5
t-94 -110t-92.5 -141t-89 -163.5q62 -12 126 -29.5t124 -41.5zM1414 1661l-66 147l-226 -147h-120l365 285h36l103 -285h-92zM1583 1772l-92 275h136l39 -275h-83z" />
    <glyph glyph-name="Ydotbelow" unicode="&#x1ef4;" horiz-adv-x="1270" 
d="M569 0l136 631l-197 768q-144 -54 -224.5 -169t-80.5 -286q0 -39 4.5 -63.5t9.5 -39t9.5 -22.5t4.5 -14q-53 0 -94 10.5t-68.5 33.5t-42 61t-14.5 94q0 68 29.5 134t81 125t121 109t149 86.5t166 57t172.5 20.5q23 0 42.5 -1t39.5 -3l178 -733l303 727h136l-398 -895
l-135 -631h-328zM511 -311q0 34 12.5 63.5t34.5 52t51.5 35.5t63.5 13t63.5 -13t52 -35.5t35.5 -52t13 -63.5t-13 -63.5t-35.5 -51.5t-52 -34.5t-63.5 -12.5t-63.5 12.5t-51.5 34.5t-34.5 51.5t-12.5 63.5z" />
    <glyph glyph-name="adotbelow" unicode="&#x1ea1;" horiz-adv-x="1077" 
d="M1163 367q-29 -83 -63 -144t-70.5 -103t-74.5 -68t-74 -40t-69 -19t-60 -5q-87 0 -138.5 47.5t-62.5 140.5q-25 -35 -55 -68.5t-67 -60t-82.5 -43t-100.5 -16.5q-53 0 -102 17t-87 56t-61 102t-23 154q0 70 14 150t43 160t72.5 153.5t102 130t132.5 90t163 33.5
q87 0 126.5 -30t39.5 -74v-15l22 109h295l-147 -696q-5 -17 -7 -33.5t-2 -32.5q0 -88 84 -88q30 0 55.5 15.5t46.5 41.5t37 61.5t27 74.5h86zM647 829q0 9 -4 22.5t-13.5 26t-25.5 21t-41 8.5q-43 0 -81.5 -28t-70.5 -74.5t-57 -105.5t-42.5 -121.5t-26.5 -123t-9 -108.5
q0 -59 11 -91t26.5 -47.5t33.5 -18.5t32 -3q23 0 48.5 11.5t49 34t43 56.5t29.5 79zM181 -311q0 34 12.5 63.5t34.5 52t51.5 35.5t63.5 13t63.5 -13t52 -35.5t35.5 -52t13 -63.5t-13 -63.5t-35.5 -51.5t-52 -34.5t-63.5 -12.5t-63.5 12.5t-51.5 34.5t-34.5 51.5t-12.5 63.5z
" />
    <glyph glyph-name="ydotbelow" unicode="&#x1ef5;" horiz-adv-x="1034" 
d="M688 -164q-22 -110 -63.5 -178t-92.5 -106t-106.5 -51t-106.5 -13q-47 0 -88.5 12.5t-72.5 37t-49.5 62t-18.5 87.5q0 64 30.5 113t78.5 85.5t107.5 62.5t117.5 44l25 110q-33 -36 -66 -58.5t-64 -34.5t-60 -16.5t-56 -4.5q-46 0 -86 14t-69.5 44t-46.5 76t-17 111
q0 28 4 61.5t12 72.5l139 657h295l-147 -696q-6 -26 -6 -52q0 -18 3 -34t10 -28.5t18.5 -20t29.5 -7.5q28 0 52.5 12.5t44.5 35t35.5 53.5t27.5 67l143 670h295l-203 -950q47 16 85 38.5t69.5 57t57 82.5t46.5 115h86q-31 -102 -73.5 -170t-90.5 -111.5t-99 -66.5t-99 -35z
M403 -111q-40 -15 -76 -32.5t-63.5 -38.5t-44 -46.5t-16.5 -56.5q0 -11 4 -23t12.5 -22t21.5 -16t31 -6q32 0 65.5 44.5t53.5 137.5zM707 -375q0 28 10.5 53.5t29 44t43.5 29.5t53 11t53.5 -11t44 -29.5t29.5 -44t11 -53.5t-11 -53t-29.5 -43.5t-44 -29t-53.5 -10.5
t-53 10.5t-43.5 29t-29 43.5t-10.5 53z" />
    <glyph glyph-name="Ocircumflexdotbelow" unicode="&#x1ed8;" horiz-adv-x="1362" 
d="M883 1343q-47 -28 -91.5 -87.5t-84.5 -139t-73.5 -173t-58 -190t-38 -190t-13.5 -172.5q0 -52 7 -95.5t21 -75t36.5 -49t54.5 -17.5q52 0 103.5 40t99.5 109t89 160.5t71 195t47.5 212.5t17.5 212q0 89 -10.5 156.5t-39.5 112.5t-80 67.5t-132 22.5q-117 0 -224 -36.5
t-188.5 -105t-129.5 -166t-48 -219.5q0 -30 3.5 -48.5t7 -30t7 -18.5t3.5 -13q-98 0 -152.5 39t-54.5 133q0 72 31 141t87 131.5t132.5 115t168.5 90.5t195 59.5t211 21.5q135 0 227.5 -39t149.5 -108.5t82.5 -166t25.5 -210.5q0 -99 -18.5 -213.5t-58 -228t-100 -219
t-144.5 -186t-192 -129t-242 -48.5q-81 0 -148 22t-116 71t-76 127.5t-27 190.5q0 83 15.5 186.5t46.5 210t77.5 208.5t108 181t138.5 127t169 48q26 0 52 -3t55 -14zM1092 1661l-123 164l-322 -164h-90l434 387h43l123 -387h-65zM371 -311q0 34 12.5 63.5t34.5 52
t51.5 35.5t63.5 13t63.5 -13t52 -35.5t35.5 -52t13 -63.5t-13 -63.5t-35.5 -51.5t-52 -34.5t-63.5 -12.5t-63.5 12.5t-51.5 34.5t-34.5 51.5t-12.5 63.5z" />
    <glyph glyph-name="Ecircumflexdotbelow" unicode="&#x1ec6;" horiz-adv-x="940" 
d="M991 348q-41 -90 -104.5 -161t-143 -121t-169.5 -76.5t-183 -26.5q-99 0 -170.5 29.5t-117 79.5t-67.5 115t-22 137q0 81 26 165t74.5 157.5t119 129t159.5 78.5q-66 48 -95.5 112.5t-29.5 133.5q0 79 33.5 157.5t93 141.5t142 102t180.5 39q61 0 114.5 -16.5t93.5 -48.5
t62.5 -80t22.5 -111q0 -46 -12 -85t-33 -67.5t-48.5 -44.5t-58.5 -16q-56 0 -96 55q18 6 34.5 25t29 44t19.5 54t7 56q0 31 -10 53t-25.5 35.5t-36 19.5t-41.5 6q-46 0 -84.5 -25t-66 -65.5t-43 -92.5t-15.5 -106q0 -45 11.5 -88t36.5 -79.5t64.5 -64t94.5 -42.5
q-55 -12 -103.5 -40t-89 -66.5t-72.5 -85.5t-54.5 -97.5t-34.5 -101.5t-12 -98q0 -43 11 -81t34 -66t60 -44t89 -16q47 0 101.5 13t106.5 39.5t97 65.5t74 91zM948 1661l-123 164l-321 -164h-90l434 387h43l123 -387h-66zM151 -311q0 34 12.5 63.5t34.5 52t51.5 35.5
t63.5 13t63.5 -13t52 -35.5t35.5 -52t13 -63.5t-13 -63.5t-35.5 -51.5t-52 -34.5t-63.5 -12.5t-63.5 12.5t-51.5 34.5t-34.5 51.5t-12.5 63.5z" />
    <glyph glyph-name="Ocircumflexacute" unicode="&#x1ed0;" horiz-adv-x="1362" 
d="M883 1343q-47 -28 -91.5 -87.5t-84.5 -139t-73.5 -173t-58 -190t-38 -190t-13.5 -172.5q0 -52 7 -95.5t21 -75t36.5 -49t54.5 -17.5q52 0 103.5 40t99.5 109t89 160.5t71 195t47.5 212.5t17.5 212q0 89 -10.5 156.5t-39.5 112.5t-80 67.5t-132 22.5q-117 0 -224 -36.5
t-188.5 -105t-129.5 -166t-48 -219.5q0 -30 3.5 -48.5t7 -30t7 -18.5t3.5 -13q-98 0 -152.5 39t-54.5 133q0 72 31 141t87 131.5t132.5 115t168.5 90.5t195 59.5t211 21.5q135 0 227.5 -39t149.5 -108.5t82.5 -166t25.5 -210.5q0 -99 -18.5 -213.5t-58 -228t-100 -219
t-144.5 -186t-192 -129t-242 -48.5q-81 0 -148 22t-116 71t-76 127.5t-27 190.5q0 83 15.5 186.5t46.5 210t77.5 208.5t108 181t138.5 127t169 48q26 0 52 -3t55 -14zM1074 1661l-66 147l-226 -147h-120l365 285h36l103 -285h-92zM1153 1774l127 274h141l-178 -274h-90z" />
    <glyph glyph-name="Ocircumflexgrave" unicode="&#x1ed2;" horiz-adv-x="1362" 
d="M883 1343q-47 -28 -91.5 -87.5t-84.5 -139t-73.5 -173t-58 -190t-38 -190t-13.5 -172.5q0 -52 7 -95.5t21 -75t36.5 -49t54.5 -17.5q52 0 103.5 40t99.5 109t89 160.5t71 195t47.5 212.5t17.5 212q0 89 -10.5 156.5t-39.5 112.5t-80 67.5t-132 22.5q-117 0 -224 -36.5
t-188.5 -105t-129.5 -166t-48 -219.5q0 -30 3.5 -48.5t7 -30t7 -18.5t3.5 -13q-98 0 -152.5 39t-54.5 133q0 72 31 141t87 131.5t132.5 115t168.5 90.5t195 59.5t211 21.5q135 0 227.5 -39t149.5 -108.5t82.5 -166t25.5 -210.5q0 -99 -18.5 -213.5t-58 -228t-100 -219
t-144.5 -186t-192 -129t-242 -48.5q-81 0 -148 22t-116 71t-76 127.5t-27 190.5q0 83 15.5 186.5t46.5 210t77.5 208.5t108 181t138.5 127t169 48q26 0 52 -3t55 -14zM1073 1661l-66 147l-226 -147h-120l365 285h36l103 -285h-92zM1242 1772l-92 275h136l39 -275h-83z" />
    <glyph glyph-name="Ecircumflexacute" unicode="&#x1ebe;" horiz-adv-x="940" 
d="M991 348q-41 -90 -104.5 -161t-143 -121t-169.5 -76.5t-183 -26.5q-99 0 -170.5 29.5t-117 79.5t-67.5 115t-22 137q0 81 26 165t74.5 157.5t119 129t159.5 78.5q-66 48 -95.5 112.5t-29.5 133.5q0 79 33.5 157.5t93 141.5t142 102t180.5 39q61 0 114.5 -16.5t93.5 -48.5
t62.5 -80t22.5 -111q0 -46 -12 -85t-33 -67.5t-48.5 -44.5t-58.5 -16q-56 0 -96 55q18 6 34.5 25t29 44t19.5 54t7 56q0 31 -10 53t-25.5 35.5t-36 19.5t-41.5 6q-46 0 -84.5 -25t-66 -65.5t-43 -92.5t-15.5 -106q0 -45 11.5 -88t36.5 -79.5t64.5 -64t94.5 -42.5
q-55 -12 -103.5 -40t-89 -66.5t-72.5 -85.5t-54.5 -97.5t-34.5 -101.5t-12 -98q0 -43 11 -81t34 -66t60 -44t89 -16q47 0 101.5 13t106.5 39.5t97 65.5t74 91zM904 1661l-66 147l-226 -147h-120l365 285h36l103 -285h-92zM983 1774l127 274h141l-178 -274h-90z" />
    <glyph glyph-name="Ecircumflexgrave" unicode="&#x1ec0;" horiz-adv-x="940" 
d="M991 348q-41 -90 -104.5 -161t-143 -121t-169.5 -76.5t-183 -26.5q-99 0 -170.5 29.5t-117 79.5t-67.5 115t-22 137q0 81 26 165t74.5 157.5t119 129t159.5 78.5q-66 48 -95.5 112.5t-29.5 133.5q0 79 33.5 157.5t93 141.5t142 102t180.5 39q61 0 114.5 -16.5t93.5 -48.5
t62.5 -80t22.5 -111q0 -46 -12 -85t-33 -67.5t-48.5 -44.5t-58.5 -16q-56 0 -96 55q18 6 34.5 25t29 44t19.5 54t7 56q0 31 -10 53t-25.5 35.5t-36 19.5t-41.5 6q-46 0 -84.5 -25t-66 -65.5t-43 -92.5t-15.5 -106q0 -45 11.5 -88t36.5 -79.5t64.5 -64t94.5 -42.5
q-55 -12 -103.5 -40t-89 -66.5t-72.5 -85.5t-54.5 -97.5t-34.5 -101.5t-12 -98q0 -43 11 -81t34 -66t60 -44t89 -16q47 0 101.5 13t106.5 39.5t97 65.5t74 91zM904 1661l-66 147l-226 -147h-120l365 285h36l103 -285h-92zM1073 1772l-92 275h136l39 -275h-83z" />
    <glyph glyph-name="Abrevetilde" unicode="&#x1eb4;" 
d="M801 0l157 743q-78 36 -142.5 52t-131.5 22q-58 -125 -106.5 -257t-84 -256.5t-55.5 -233.5t-20 -189q0 -49 8.5 -74.5t19.5 -39.5q-41 0 -88.5 4t-89 24.5t-69 64.5t-27.5 124q0 68 21.5 163t61.5 204.5t95 229t123 236.5q-97 -6 -158.5 -29.5t-81.5 -76.5
q8 0 17.5 -20.5t9.5 -43.5q0 -37 -33.5 -58.5t-81.5 -21.5q-27 0 -50 7.5t-40 22t-27 37t-10 52.5q0 52 31.5 98t87.5 80t132.5 54t166.5 20q42 0 107 -6q78 123 165 232.5t179 192t185 131t183 48.5q36 0 80.5 -6t81.5 -23l-321 -1507h-295zM1096 1391q-46 -25 -93.5 -71.5
t-94 -110t-92.5 -141t-89 -163.5q62 -12 126 -29.5t124 -41.5zM1637 1840q-7 -50 -38.5 -93.5t-80.5 -75.5t-111.5 -50t-131.5 -18q-129 0 -195.5 60t-66.5 177h153q0 -69 35.5 -105.5t99.5 -36.5q36 0 68 11t57.5 30.5t42.5 45t21 55.5h147zM1635 2030q-5 -25 -26.5 -51
t-54 -47t-72 -34t-80.5 -13q-36 0 -67 8.5t-60 18.5t-57 18.5t-59 8.5q-54 0 -94 -37l-9 3q34 69 96 105.5t145 36.5q39 0 69.5 -7.5t57.5 -16.5t53.5 -16.5t58.5 -7.5q27 0 50.5 8t39.5 25z" />
    <glyph glyph-name="Acircumflextilde" unicode="&#x1eaa;" 
d="M801 0l157 743q-78 36 -142.5 52t-131.5 22q-58 -125 -106.5 -257t-84 -256.5t-55.5 -233.5t-20 -189q0 -49 8.5 -74.5t19.5 -39.5q-41 0 -88.5 4t-89 24.5t-69 64.5t-27.5 124q0 68 21.5 163t61.5 204.5t95 229t123 236.5q-97 -6 -158.5 -29.5t-81.5 -76.5
q8 0 17.5 -20.5t9.5 -43.5q0 -37 -33.5 -58.5t-81.5 -21.5q-27 0 -50 7.5t-40 22t-27 37t-10 52.5q0 52 31.5 98t87.5 80t132.5 54t166.5 20q42 0 107 -6q78 123 165 232.5t179 192t185 131t183 48.5q36 0 80.5 -6t81.5 -23l-321 -1507h-295zM1675 2030q-5 -25 -27 -51
t-55.5 -47t-76.5 -34t-91 -13l81 -224h-92l-66 147l-226 -147h-120l319 249q-31 11 -60.5 20t-61.5 9q-54 0 -94 -37l-9 3q34 69 96 105.5t145 36.5q39 0 69.5 -7.5t57.5 -16.5t53.5 -16.5t58.5 -7.5q27 0 50.5 8t39.5 25zM1096 1391q-46 -25 -93.5 -71.5t-94 -110
t-92.5 -141t-89 -163.5q62 -12 126 -29.5t124 -41.5z" />
    <glyph glyph-name="Ecircumflextilde" unicode="&#x1ec4;" horiz-adv-x="940" 
d="M991 348q-41 -90 -104.5 -161t-143 -121t-169.5 -76.5t-183 -26.5q-99 0 -170.5 29.5t-117 79.5t-67.5 115t-22 137q0 81 26 165t74.5 157.5t119 129t159.5 78.5q-66 48 -95.5 112.5t-29.5 133.5q0 79 33.5 157.5t93 141.5t142 102t180.5 39q61 0 114.5 -16.5t93.5 -48.5
t62.5 -80t22.5 -111q0 -46 -12 -85t-33 -67.5t-48.5 -44.5t-58.5 -16q-56 0 -96 55q18 6 34.5 25t29 44t19.5 54t7 56q0 31 -10 53t-25.5 35.5t-36 19.5t-41.5 6q-46 0 -84.5 -25t-66 -65.5t-43 -92.5t-15.5 -106q0 -45 11.5 -88t36.5 -79.5t64.5 -64t94.5 -42.5
q-55 -12 -103.5 -40t-89 -66.5t-72.5 -85.5t-54.5 -97.5t-34.5 -101.5t-12 -98q0 -43 11 -81t34 -66t60 -44t89 -16q47 0 101.5 13t106.5 39.5t97 65.5t74 91zM1165 2030q-5 -25 -26.5 -51t-54 -47t-72 -34t-80.5 -13h-17l81 -224h-92l-66 147l-226 -147h-120l319 249
q-31 11 -60.5 20t-61.5 9q-54 0 -94 -37l-9 3q34 69 96 105.5t145 36.5q39 0 69.5 -7.5t57.5 -16.5t53.5 -16.5t58.5 -7.5q27 0 50.5 8t39.5 25z" />
    <glyph glyph-name="Ocircumflextilde" unicode="&#x1ed6;" horiz-adv-x="1362" 
d="M883 1343q-47 -28 -91.5 -87.5t-84.5 -139t-73.5 -173t-58 -190t-38 -190t-13.5 -172.5q0 -52 7 -95.5t21 -75t36.5 -49t54.5 -17.5q52 0 103.5 40t99.5 109t89 160.5t71 195t47.5 212.5t17.5 212q0 89 -10.5 156.5t-39.5 112.5t-80 67.5t-132 22.5q-117 0 -224 -36.5
t-188.5 -105t-129.5 -166t-48 -219.5q0 -30 3.5 -48.5t7 -30t7 -18.5t3.5 -13q-98 0 -152.5 39t-54.5 133q0 72 31 141t87 131.5t132.5 115t168.5 90.5t195 59.5t211 21.5q135 0 227.5 -39t149.5 -108.5t82.5 -166t25.5 -210.5q0 -99 -18.5 -213.5t-58 -228t-100 -219
t-144.5 -186t-192 -129t-242 -48.5q-81 0 -148 22t-116 71t-76 127.5t-27 190.5q0 83 15.5 186.5t46.5 210t77.5 208.5t108 181t138.5 127t169 48q26 0 52 -3t55 -14zM1335 2030q-5 -25 -27 -51t-55.5 -47t-76.5 -34t-91 -13l81 -224h-92l-66 147l-226 -147h-120l319 249
q-31 11 -60.5 20t-61.5 9q-54 0 -94 -37l-9 3q34 69 96 105.5t145 36.5q39 0 69.5 -7.5t57.5 -16.5t53.5 -16.5t58.5 -7.5q27 0 50.5 8t39.5 25z" />
    <glyph glyph-name="abrevedotbelow" unicode="&#x1eb7;" horiz-adv-x="1077" 
d="M1163 367q-29 -83 -63 -144t-70.5 -103t-74.5 -68t-74 -40t-69 -19t-60 -5q-87 0 -138.5 47.5t-62.5 140.5q-25 -35 -55 -68.5t-67 -60t-82.5 -43t-100.5 -16.5q-53 0 -102 17t-87 56t-61 102t-23 154q0 70 14 150t43 160t72.5 153.5t102 130t132.5 90t163 33.5
q87 0 126.5 -30t39.5 -74v-15l22 109h295l-147 -696q-5 -17 -7 -33.5t-2 -32.5q0 -88 84 -88q30 0 55.5 15.5t46.5 41.5t37 61.5t27 74.5h86zM647 829q0 9 -4 22.5t-13.5 26t-25.5 21t-41 8.5q-43 0 -81.5 -28t-70.5 -74.5t-57 -105.5t-42.5 -121.5t-26.5 -123t-9 -108.5
q0 -59 11 -91t26.5 -47.5t33.5 -18.5t32 -3q23 0 48.5 11.5t49 34t43 56.5t29.5 79zM1053 1490q-9 -60 -46.5 -111.5t-95.5 -90t-132.5 -60t-157.5 -21.5q-153 0 -232.5 71.5t-79.5 211.5h183q0 -82 42 -126t119 -44q42 0 80.5 13.5t69 36.5t50 54t24.5 66h176zM181 -311
q0 34 12.5 63.5t34.5 52t51.5 35.5t63.5 13t63.5 -13t52 -35.5t35.5 -52t13 -63.5t-13 -63.5t-35.5 -51.5t-52 -34.5t-63.5 -12.5t-63.5 12.5t-51.5 34.5t-34.5 51.5t-12.5 63.5z" />
    <glyph glyph-name="acircumflexdotbelow" unicode="&#x1ead;" horiz-adv-x="1077" 
d="M1163 367q-29 -83 -63 -144t-70.5 -103t-74.5 -68t-74 -40t-69 -19t-60 -5q-87 0 -138.5 47.5t-62.5 140.5q-25 -35 -55 -68.5t-67 -60t-82.5 -43t-100.5 -16.5q-53 0 -102 17t-87 56t-61 102t-23 154q0 70 14 150t43 160t72.5 153.5t102 130t132.5 90t163 33.5
q87 0 126.5 -30t39.5 -74v-15l22 109h295l-147 -696q-5 -17 -7 -33.5t-2 -32.5q0 -88 84 -88q30 0 55.5 15.5t46.5 41.5t37 61.5t27 74.5h86zM647 829q0 9 -4 22.5t-13.5 26t-25.5 21t-41 8.5q-43 0 -81.5 -28t-70.5 -74.5t-57 -105.5t-42.5 -121.5t-26.5 -123t-9 -108.5
q0 -59 11 -91t26.5 -47.5t33.5 -18.5t32 -3q23 0 48.5 11.5t49 34t43 56.5t29.5 79zM854 1149l-123 164l-322 -164h-90l434 387h43l123 -387h-65zM181 -311q0 34 12.5 63.5t34.5 52t51.5 35.5t63.5 13t63.5 -13t52 -35.5t35.5 -52t13 -63.5t-13 -63.5t-35.5 -51.5t-52 -34.5
t-63.5 -12.5t-63.5 12.5t-51.5 34.5t-34.5 51.5t-12.5 63.5z" />
    <glyph glyph-name="acircumflexacute" unicode="&#x1ea5;" horiz-adv-x="1077" 
d="M1163 367q-29 -83 -63 -144t-70.5 -103t-74.5 -68t-74 -40t-69 -19t-60 -5q-87 0 -138.5 47.5t-62.5 140.5q-25 -35 -55 -68.5t-67 -60t-82.5 -43t-100.5 -16.5q-53 0 -102 17t-87 56t-61 102t-23 154q0 70 14 150t43 160t72.5 153.5t102 130t132.5 90t163 33.5
q87 0 126.5 -30t39.5 -74v-15l22 109h295l-147 -696q-5 -17 -7 -33.5t-2 -32.5q0 -88 84 -88q30 0 55.5 15.5t46.5 41.5t37 61.5t27 74.5h86zM647 829q0 9 -4 22.5t-13.5 26t-25.5 21t-41 8.5q-43 0 -81.5 -28t-70.5 -74.5t-57 -105.5t-42.5 -121.5t-26.5 -123t-9 -108.5
q0 -59 11 -91t26.5 -47.5t33.5 -18.5t32 -3q23 0 48.5 11.5t49 34t43 56.5t29.5 79zM837 1173l-109 145l-284 -145h-80l383 341h38l109 -341h-57zM903 1461l165 341h178l-219 -341h-124z" />
    <glyph glyph-name="acircumflexgrave" unicode="&#x1ea7;" horiz-adv-x="1077" 
d="M1163 367q-29 -83 -63 -144t-70.5 -103t-74.5 -68t-74 -40t-69 -19t-60 -5q-87 0 -138.5 47.5t-62.5 140.5q-25 -35 -55 -68.5t-67 -60t-82.5 -43t-100.5 -16.5q-53 0 -102 17t-87 56t-61 102t-23 154q0 70 14 150t43 160t72.5 153.5t102 130t132.5 90t163 33.5
q87 0 126.5 -30t39.5 -74v-15l22 109h295l-147 -696q-5 -17 -7 -33.5t-2 -32.5q0 -88 84 -88q30 0 55.5 15.5t46.5 41.5t37 61.5t27 74.5h86zM647 829q0 9 -4 22.5t-13.5 26t-25.5 21t-41 8.5q-43 0 -81.5 -28t-70.5 -74.5t-57 -105.5t-42.5 -121.5t-26.5 -123t-9 -108.5
q0 -59 11 -91t26.5 -47.5t33.5 -18.5t32 -3q23 0 48.5 11.5t49 34t43 56.5t29.5 79zM837 1173l-109 145l-284 -145h-80l383 341h38l109 -341h-57zM984 1390l-107 341h161l53 -341h-107z" />
    <glyph glyph-name="acircumflextilde" unicode="&#x1eab;" horiz-adv-x="1077" 
d="M1163 367q-29 -83 -63 -144t-70.5 -103t-74.5 -68t-74 -40t-69 -19t-60 -5q-87 0 -138.5 47.5t-62.5 140.5q-25 -35 -55 -68.5t-67 -60t-82.5 -43t-100.5 -16.5q-53 0 -102 17t-87 56t-61 102t-23 154q0 70 14 150t43 160t72.5 153.5t102 130t132.5 90t163 33.5
q87 0 126.5 -30t39.5 -74v-15l22 109h295l-147 -696q-5 -17 -7 -33.5t-2 -32.5q0 -88 84 -88q30 0 55.5 15.5t46.5 41.5t37 61.5t27 74.5h86zM647 829q0 9 -4 22.5t-13.5 26t-25.5 21t-41 8.5q-43 0 -81.5 -28t-70.5 -74.5t-57 -105.5t-42.5 -121.5t-26.5 -123t-9 -108.5
q0 -59 11 -91t26.5 -47.5t33.5 -18.5t32 -3q23 0 48.5 11.5t49 34t43 56.5t29.5 79zM837 1173l-109 145l-284 -145h-80l383 341h38l109 -341h-57zM1066 1748q-5 -26 -26 -51t-52.5 -45.5t-70.5 -33t-80 -12.5q-35 0 -65.5 8.5t-58.5 18t-55 18t-57 8.5q-51 0 -93 -37l-9 3
q33 69 94 104t142 35q38 0 68 -7.5t56.5 -16t52.5 -16t57 -7.5q26 0 49.5 8t38.5 24z" />
    <glyph glyph-name="abrevetilde" unicode="&#x1eb5;" horiz-adv-x="1077" 
d="M1163 367q-29 -83 -63 -144t-70.5 -103t-74.5 -68t-74 -40t-69 -19t-60 -5q-87 0 -138.5 47.5t-62.5 140.5q-25 -35 -55 -68.5t-67 -60t-82.5 -43t-100.5 -16.5q-53 0 -102 17t-87 56t-61 102t-23 154q0 70 14 150t43 160t72.5 153.5t102 130t132.5 90t163 33.5
q87 0 126.5 -30t39.5 -74v-15l22 109h295l-147 -696q-5 -17 -7 -33.5t-2 -32.5q0 -88 84 -88q30 0 55.5 15.5t46.5 41.5t37 61.5t27 74.5h86zM647 829q0 9 -4 22.5t-13.5 26t-25.5 21t-41 8.5q-43 0 -81.5 -28t-70.5 -74.5t-57 -105.5t-42.5 -121.5t-26.5 -123t-9 -108.5
q0 -59 11 -91t26.5 -47.5t33.5 -18.5t32 -3q23 0 48.5 11.5t49 34t43 56.5t29.5 79zM1020 1454q-8 -53 -41 -99t-84.5 -80t-117.5 -53t-139 -19q-135 0 -205.5 63.5t-70.5 187.5h162q0 -73 37 -111.5t106 -38.5q37 0 71 11.5t60.5 32t44 47.5t21.5 59h156zM1036 1748
q-5 -26 -26 -51t-52.5 -45.5t-70.5 -33t-80 -12.5q-35 0 -65.5 8.5t-58.5 18t-55 18t-57 8.5q-51 0 -93 -37l-9 3q33 69 94 104t142 35q38 0 68 -7.5t56.5 -16t52.5 -16t57 -7.5q26 0 49.5 8t38.5 24z" />
    <glyph glyph-name="ecircumflexacute" unicode="&#x1ebf;" horiz-adv-x="786" 
d="M856 367q-43 -72 -98.5 -140t-125 -121t-154 -85.5t-185.5 -32.5q-73 0 -132 18.5t-101 57.5t-64.5 100.5t-22.5 148.5q0 59 12 136t38 158t69 159t104 139.5t143 99t187 37.5q69 0 112.5 -16.5t69 -43.5t35 -62.5t9.5 -73.5q0 -89 -39 -165.5t-104.5 -133.5t-150.5 -92
t-177 -41q-2 -23 -3.5 -43.5t-1.5 -38.5q0 -52 9.5 -85.5t28 -52.5t46 -26.5t64.5 -7.5q61 0 110.5 16t92.5 44t81.5 66t77.5 81h70zM297 512q58 4 112 33t95 75.5t65.5 106t24.5 123.5q0 38 -11 61t-40 23q-39 0 -76.5 -37.5t-70.5 -97.5t-58.5 -135.5t-40.5 -151.5z
M737 1173l-109 145l-284 -145h-80l383 341h38l109 -341h-57zM803 1461l165 341h178l-219 -341h-124z" />
    <glyph glyph-name="ecircumflexgrave" unicode="&#x1ec1;" horiz-adv-x="786" 
d="M856 367q-43 -72 -98.5 -140t-125 -121t-154 -85.5t-185.5 -32.5q-73 0 -132 18.5t-101 57.5t-64.5 100.5t-22.5 148.5q0 59 12 136t38 158t69 159t104 139.5t143 99t187 37.5q69 0 112.5 -16.5t69 -43.5t35 -62.5t9.5 -73.5q0 -89 -39 -165.5t-104.5 -133.5t-150.5 -92
t-177 -41q-2 -23 -3.5 -43.5t-1.5 -38.5q0 -52 9.5 -85.5t28 -52.5t46 -26.5t64.5 -7.5q61 0 110.5 16t92.5 44t81.5 66t77.5 81h70zM297 512q58 4 112 33t95 75.5t65.5 106t24.5 123.5q0 38 -11 61t-40 23q-39 0 -76.5 -37.5t-70.5 -97.5t-58.5 -135.5t-40.5 -151.5z
M737 1173l-109 145l-284 -145h-80l383 341h38l109 -341h-57zM884 1390l-107 341h161l53 -341h-107z" />
    <glyph glyph-name="ecircumflexdotbelow" unicode="&#x1ec7;" horiz-adv-x="786" 
d="M856 367q-43 -72 -98.5 -140t-125 -121t-154 -85.5t-185.5 -32.5q-73 0 -132 18.5t-101 57.5t-64.5 100.5t-22.5 148.5q0 59 12 136t38 158t69 159t104 139.5t143 99t187 37.5q69 0 112.5 -16.5t69 -43.5t35 -62.5t9.5 -73.5q0 -89 -39 -165.5t-104.5 -133.5t-150.5 -92
t-177 -41q-2 -23 -3.5 -43.5t-1.5 -38.5q0 -52 9.5 -85.5t28 -52.5t46 -26.5t64.5 -7.5q61 0 110.5 16t92.5 44t81.5 66t77.5 81h70zM297 512q58 4 112 33t95 75.5t65.5 106t24.5 123.5q0 38 -11 61t-40 23q-39 0 -76.5 -37.5t-70.5 -97.5t-58.5 -135.5t-40.5 -151.5z
M750 1149l-123 164l-322 -164h-90l434 387h43l123 -387h-65zM51 -311q0 34 12.5 63.5t34.5 52t51.5 35.5t63.5 13t63.5 -13t52 -35.5t35.5 -52t13 -63.5t-13 -63.5t-35.5 -51.5t-52 -34.5t-63.5 -12.5t-63.5 12.5t-51.5 34.5t-34.5 51.5t-12.5 63.5z" />
    <glyph glyph-name="abreveacute" unicode="&#x1eaf;" horiz-adv-x="1077" 
d="M1163 367q-29 -83 -63 -144t-70.5 -103t-74.5 -68t-74 -40t-69 -19t-60 -5q-87 0 -138.5 47.5t-62.5 140.5q-25 -35 -55 -68.5t-67 -60t-82.5 -43t-100.5 -16.5q-53 0 -102 17t-87 56t-61 102t-23 154q0 70 14 150t43 160t72.5 153.5t102 130t132.5 90t163 33.5
q87 0 126.5 -30t39.5 -74v-15l22 109h295l-147 -696q-5 -17 -7 -33.5t-2 -32.5q0 -88 84 -88q30 0 55.5 15.5t46.5 41.5t37 61.5t27 74.5h86zM647 829q0 9 -4 22.5t-13.5 26t-25.5 21t-41 8.5q-43 0 -81.5 -28t-70.5 -74.5t-57 -105.5t-42.5 -121.5t-26.5 -123t-9 -108.5
q0 -59 11 -91t26.5 -47.5t33.5 -18.5t32 -3q23 0 48.5 11.5t49 34t43 56.5t29.5 79zM1010 1454q-8 -53 -41 -99t-84.5 -80t-117.5 -53t-139 -19q-135 0 -205.5 63.5t-70.5 187.5h162q0 -73 37 -111.5t106 -38.5q37 0 71 11.5t60.5 32t44 47.5t21.5 59h156zM613 1419l135 313
h168l-189 -313h-114z" />
    <glyph glyph-name="abrevegrave" unicode="&#x1eb1;" horiz-adv-x="1077" 
d="M1163 367q-29 -83 -63 -144t-70.5 -103t-74.5 -68t-74 -40t-69 -19t-60 -5q-87 0 -138.5 47.5t-62.5 140.5q-25 -35 -55 -68.5t-67 -60t-82.5 -43t-100.5 -16.5q-53 0 -102 17t-87 56t-61 102t-23 154q0 70 14 150t43 160t72.5 153.5t102 130t132.5 90t163 33.5
q87 0 126.5 -30t39.5 -74v-15l22 109h295l-147 -696q-5 -17 -7 -33.5t-2 -32.5q0 -88 84 -88q30 0 55.5 15.5t46.5 41.5t37 61.5t27 74.5h86zM647 829q0 9 -4 22.5t-13.5 26t-25.5 21t-41 8.5q-43 0 -81.5 -28t-70.5 -74.5t-57 -105.5t-42.5 -121.5t-26.5 -123t-9 -108.5
q0 -59 11 -91t26.5 -47.5t33.5 -18.5t32 -3q23 0 48.5 11.5t49 34t43 56.5t29.5 79zM1010 1454q-8 -53 -41 -99t-84.5 -80t-117.5 -53t-139 -19q-135 0 -205.5 63.5t-70.5 187.5h162q0 -73 37 -111.5t106 -38.5q37 0 71 11.5t60.5 32t44 47.5t21.5 59h156zM634 1420
l-107 311h161l53 -311h-107z" />
    <glyph glyph-name="ecircumflextilde" unicode="&#x1ec5;" horiz-adv-x="786" 
d="M856 367q-43 -72 -98.5 -140t-125 -121t-154 -85.5t-185.5 -32.5q-73 0 -132 18.5t-101 57.5t-64.5 100.5t-22.5 148.5q0 59 12 136t38 158t69 159t104 139.5t143 99t187 37.5q69 0 112.5 -16.5t69 -43.5t35 -62.5t9.5 -73.5q0 -89 -39 -165.5t-104.5 -133.5t-150.5 -92
t-177 -41q-2 -23 -3.5 -43.5t-1.5 -38.5q0 -52 9.5 -85.5t28 -52.5t46 -26.5t64.5 -7.5q61 0 110.5 16t92.5 44t81.5 66t77.5 81h70zM297 512q58 4 112 33t95 75.5t65.5 106t24.5 123.5q0 38 -11 61t-40 23q-39 0 -76.5 -37.5t-70.5 -97.5t-58.5 -135.5t-40.5 -151.5z
M737 1173l-109 145l-284 -145h-80l383 341h38l109 -341h-57zM966 1748q-5 -26 -26 -51t-52.5 -45.5t-70.5 -33t-80 -12.5q-35 0 -65.5 8.5t-58.5 18t-55 18t-57 8.5q-51 0 -93 -37l-9 3q33 69 94 104t142 35q38 0 68 -7.5t56.5 -16t52.5 -16t57 -7.5q26 0 49.5 8t38.5 24z
" />
    <glyph glyph-name="ocircumflexacute" unicode="&#x1ed1;" horiz-adv-x="887" 
d="M1139 778q-60 -63 -155 -107t-208 -63q-12 -142 -54.5 -256t-107.5 -194t-149 -123t-178 -43q-72 0 -132 17.5t-103.5 56t-68 100t-24.5 149.5q0 60 12.5 136.5t39.5 157.5t71 158.5t106 138.5t144.5 98.5t187.5 37.5q262 0 262 -327v-2q5 -2 10 -2h13q36 0 77.5 10.5
t83 27.5t81.5 39.5t73 45.5zM606 602q-32 8 -43.5 31.5t-11.5 54.5q0 43 17 70.5t46 40.5q-2 33 -6.5 55.5t-13.5 37t-22.5 20.5t-34.5 6q-37 0 -71 -28.5t-64.5 -75.5t-55.5 -107.5t-43.5 -124.5t-28.5 -126.5t-10 -113.5t5.5 -83t18 -50.5t32.5 -25.5t49 -7q37 0 74.5 33
t69.5 90t56.5 135t36.5 168zM737 1173l-109 145l-284 -145h-80l383 341h38l109 -341h-57zM803 1461l165 341h178l-219 -341h-124z" />
    <glyph glyph-name="ocircumflexgrave" unicode="&#x1ed3;" horiz-adv-x="887" 
d="M1139 778q-60 -63 -155 -107t-208 -63q-12 -142 -54.5 -256t-107.5 -194t-149 -123t-178 -43q-72 0 -132 17.5t-103.5 56t-68 100t-24.5 149.5q0 60 12.5 136.5t39.5 157.5t71 158.5t106 138.5t144.5 98.5t187.5 37.5q262 0 262 -327v-2q5 -2 10 -2h13q36 0 77.5 10.5
t83 27.5t81.5 39.5t73 45.5zM606 602q-32 8 -43.5 31.5t-11.5 54.5q0 43 17 70.5t46 40.5q-2 33 -6.5 55.5t-13.5 37t-22.5 20.5t-34.5 6q-37 0 -71 -28.5t-64.5 -75.5t-55.5 -107.5t-43.5 -124.5t-28.5 -126.5t-10 -113.5t5.5 -83t18 -50.5t32.5 -25.5t49 -7q37 0 74.5 33
t69.5 90t56.5 135t36.5 168zM737 1173l-109 145l-284 -145h-80l383 341h38l109 -341h-57zM884 1390l-107 341h161l53 -341h-107z" />
    <glyph glyph-name="ocircumflexdotbelow" unicode="&#x1ed9;" horiz-adv-x="887" 
d="M1139 778q-60 -63 -155 -107t-208 -63q-12 -142 -54.5 -256t-107.5 -194t-149 -123t-178 -43q-72 0 -132 17.5t-103.5 56t-68 100t-24.5 149.5q0 60 12.5 136.5t39.5 157.5t71 158.5t106 138.5t144.5 98.5t187.5 37.5q262 0 262 -327v-2q5 -2 10 -2h13q36 0 77.5 10.5
t83 27.5t81.5 39.5t73 45.5zM606 602q-32 8 -43.5 31.5t-11.5 54.5q0 43 17 70.5t46 40.5q-2 33 -6.5 55.5t-13.5 37t-22.5 20.5t-34.5 6q-37 0 -71 -28.5t-64.5 -75.5t-55.5 -107.5t-43.5 -124.5t-28.5 -126.5t-10 -113.5t5.5 -83t18 -50.5t32.5 -25.5t49 -7q37 0 74.5 33
t69.5 90t56.5 135t36.5 168zM729 1149l-123 164l-321 -164h-90l434 387h43l123 -387h-66zM51 -311q0 34 12.5 63.5t34.5 52t51.5 35.5t63.5 13t63.5 -13t52 -35.5t35.5 -52t13 -63.5t-13 -63.5t-35.5 -51.5t-52 -34.5t-63.5 -12.5t-63.5 12.5t-51.5 34.5t-34.5 51.5
t-12.5 63.5z" />
    <glyph glyph-name="ocircumflextilde" unicode="&#x1ed7;" horiz-adv-x="887" 
d="M1139 778q-60 -63 -155 -107t-208 -63q-12 -142 -54.5 -256t-107.5 -194t-149 -123t-178 -43q-72 0 -132 17.5t-103.5 56t-68 100t-24.5 149.5q0 60 12.5 136.5t39.5 157.5t71 158.5t106 138.5t144.5 98.5t187.5 37.5q262 0 262 -327v-2q5 -2 10 -2h13q36 0 77.5 10.5
t83 27.5t81.5 39.5t73 45.5zM606 602q-32 8 -43.5 31.5t-11.5 54.5q0 43 17 70.5t46 40.5q-2 33 -6.5 55.5t-13.5 37t-22.5 20.5t-34.5 6q-37 0 -71 -28.5t-64.5 -75.5t-55.5 -107.5t-43.5 -124.5t-28.5 -126.5t-10 -113.5t5.5 -83t18 -50.5t32.5 -25.5t49 -7q37 0 74.5 33
t69.5 90t56.5 135t36.5 168zM738 1173l-109 145l-284 -145h-80l383 341h38l109 -341h-57zM967 1748q-5 -26 -26 -51t-52.5 -45.5t-70.5 -33t-80 -12.5q-35 0 -65.5 8.5t-58.5 18t-55 18t-57 8.5q-51 0 -93 -37l-9 3q33 69 94 104t142 35q38 0 68 -7.5t56.5 -16t52.5 -16
t57 -7.5q26 0 49.5 8t38.5 24z" />
    <glyph glyph-name="ohornacute" unicode="&#x1edb;" horiz-adv-x="899" 
d="M797 695q0 -149 -40.5 -277t-111 -222.5t-167 -148.5t-207.5 -54q-146 0 -221.5 92.5t-75.5 269.5q0 93 20 180t57 163t88.5 139t113.5 107.5t133.5 69.5t148.5 25q127 0 191 -73q30 17 49 40t30.5 50t15.5 56.5t4 61.5q0 51 -11 101q24 17 53.5 28.5t57.5 11.5
q31 0 53.5 -20t22.5 -70t-17.5 -102.5t-48.5 -101t-72 -89t-87 -65.5q21 -71 21 -172zM554 927q-32 0 -64.5 -24.5t-63 -67t-57.5 -99t-47 -121.5t-31.5 -134t-11.5 -136q0 -84 19 -122t61 -38q33 0 66.5 23t63.5 64t56.5 96.5t45.5 119.5t30 135t11 142q0 77 -20.5 119.5
t-57.5 42.5zM449 1149l186 387h215l-248 -387h-153z" />
    <glyph glyph-name="ohorndotbelow" unicode="&#x1ee3;" horiz-adv-x="899" 
d="M797 695q0 -149 -40.5 -277t-111 -222.5t-167 -148.5t-207.5 -54q-146 0 -221.5 92.5t-75.5 269.5q0 93 20 180t57 163t88.5 139t113.5 107.5t133.5 69.5t148.5 25q127 0 191 -73q30 17 49 40t30.5 50t15.5 56.5t4 61.5q0 51 -11 101q24 17 53.5 28.5t57.5 11.5
q31 0 53.5 -20t22.5 -70t-17.5 -102.5t-48.5 -101t-72 -89t-87 -65.5q21 -71 21 -172zM554 927q-32 0 -64.5 -24.5t-63 -67t-57.5 -99t-47 -121.5t-31.5 -134t-11.5 -136q0 -84 19 -122t61 -38q33 0 66.5 23t63.5 64t56.5 96.5t45.5 119.5t30 135t11 142q0 77 -20.5 119.5
t-57.5 42.5zM51 -311q0 34 12.5 63.5t34.5 52t51.5 35.5t63.5 13t63.5 -13t52 -35.5t35.5 -52t13 -63.5t-13 -63.5t-35.5 -51.5t-52 -34.5t-63.5 -12.5t-63.5 12.5t-51.5 34.5t-34.5 51.5t-12.5 63.5z" />
    <glyph glyph-name="ohorngrave" unicode="&#x1edd;" horiz-adv-x="899" 
d="M797 695q0 -149 -40.5 -277t-111 -222.5t-167 -148.5t-207.5 -54q-146 0 -221.5 92.5t-75.5 269.5q0 93 20 180t57 163t88.5 139t113.5 107.5t133.5 69.5t148.5 25q127 0 191 -73q30 17 49 40t30.5 50t15.5 56.5t4 61.5q0 51 -11 101q24 17 53.5 28.5t57.5 11.5
q31 0 53.5 -20t22.5 -70t-17.5 -102.5t-48.5 -101t-72 -89t-87 -65.5q21 -71 21 -172zM554 927q-32 0 -64.5 -24.5t-63 -67t-57.5 -99t-47 -121.5t-31.5 -134t-11.5 -136q0 -84 19 -122t61 -38q33 0 66.5 23t63.5 64t56.5 96.5t45.5 119.5t30 135t11 142q0 77 -20.5 119.5
t-57.5 42.5zM487 1149l-120 387h215l59 -387h-154z" />
    <glyph glyph-name="ohorntilde" unicode="&#x1ee1;" horiz-adv-x="899" 
d="M797 695q0 -149 -40.5 -277t-111 -222.5t-167 -148.5t-207.5 -54q-146 0 -221.5 92.5t-75.5 269.5q0 93 20 180t57 163t88.5 139t113.5 107.5t133.5 69.5t148.5 25q127 0 191 -73q30 17 49 40t30.5 50t15.5 56.5t4 61.5q0 51 -11 101q24 17 53.5 28.5t57.5 11.5
q31 0 53.5 -20t22.5 -70t-17.5 -102.5t-48.5 -101t-72 -89t-87 -65.5q21 -71 21 -172zM554 927q-32 0 -64.5 -24.5t-63 -67t-57.5 -99t-47 -121.5t-31.5 -134t-11.5 -136q0 -84 19 -122t61 -38q33 0 66.5 23t63.5 64t56.5 96.5t45.5 119.5t30 135t11 142q0 77 -20.5 119.5
t-57.5 42.5zM764 1370q-5 -36 -27.5 -72.5t-56 -66t-75 -48t-84.5 -18.5q-38 0 -70 12t-62 26t-59.5 26t-60.5 12q-55 0 -99 -53l-9 4q35 99 100 150t151 51q40 0 72 -10.5t60 -23.5t56 -23.5t61 -10.5q28 0 52.5 12t41.5 35z" />
    <glyph glyph-name="uhornacute" unicode="&#x1ee9;" horiz-adv-x="1034" 
d="M1120 367q-29 -83 -63 -144t-70.5 -103t-74.5 -68t-74 -40t-69 -19t-60 -5q-88 0 -140 48.5t-63 145.5q-39 -63 -79 -101t-79 -59t-76 -27.5t-69 -6.5q-46 0 -86 14t-69.5 44t-46.5 76t-17 111q0 28 4 61.5t12 72.5l139 657h295l-147 -696q-6 -32 -6 -58q0 -35 13 -59.5
t48 -24.5q30 0 55 13.5t45.5 37.5t36 57.5t27.5 72.5l139 657h214q26 18 42.5 40t26.5 48t13.5 54t3.5 58q0 51 -11 101q24 17 53.5 28.5t57.5 11.5q31 0 53.5 -20t22.5 -70q0 -46 -15.5 -95t-42.5 -95t-64 -86t-79 -68l-127 -603q-5 -17 -7 -33.5t-2 -32.5
q0 -43 20.5 -59.5t63.5 -16.5q30 0 55.5 13.5t46.5 37.5t37 57.5t27 72.5h86zM489 1149l187 387h215l-248 -387h-154z" />
    <glyph glyph-name="uhorndotbelow" unicode="&#x1ef1;" horiz-adv-x="1034" 
d="M1120 367q-29 -83 -63 -144t-70.5 -103t-74.5 -68t-74 -40t-69 -19t-60 -5q-88 0 -140 48.5t-63 145.5q-39 -63 -79 -101t-79 -59t-76 -27.5t-69 -6.5q-46 0 -86 14t-69.5 44t-46.5 76t-17 111q0 28 4 61.5t12 72.5l139 657h295l-147 -696q-6 -32 -6 -58q0 -35 13 -59.5
t48 -24.5q30 0 55 13.5t45.5 37.5t36 57.5t27.5 72.5l139 657h214q26 18 42.5 40t26.5 48t13.5 54t3.5 58q0 51 -11 101q24 17 53.5 28.5t57.5 11.5q31 0 53.5 -20t22.5 -70q0 -46 -15.5 -95t-42.5 -95t-64 -86t-79 -68l-127 -603q-5 -17 -7 -33.5t-2 -32.5
q0 -43 20.5 -59.5t63.5 -16.5q30 0 55.5 13.5t46.5 37.5t37 57.5t27 72.5h86zM161 -311q0 34 12.5 63.5t34.5 52t51.5 35.5t63.5 13t63.5 -13t52 -35.5t35.5 -52t13 -63.5t-13 -63.5t-35.5 -51.5t-52 -34.5t-63.5 -12.5t-63.5 12.5t-51.5 34.5t-34.5 51.5t-12.5 63.5z" />
    <glyph glyph-name="uhorngrave" unicode="&#x1eeb;" horiz-adv-x="1034" 
d="M1120 367q-29 -83 -63 -144t-70.5 -103t-74.5 -68t-74 -40t-69 -19t-60 -5q-88 0 -140 48.5t-63 145.5q-39 -63 -79 -101t-79 -59t-76 -27.5t-69 -6.5q-46 0 -86 14t-69.5 44t-46.5 76t-17 111q0 28 4 61.5t12 72.5l139 657h295l-147 -696q-6 -32 -6 -58q0 -35 13 -59.5
t48 -24.5q30 0 55 13.5t45.5 37.5t36 57.5t27.5 72.5l139 657h214q26 18 42.5 40t26.5 48t13.5 54t3.5 58q0 51 -11 101q24 17 53.5 28.5t57.5 11.5q31 0 53.5 -20t22.5 -70q0 -46 -15.5 -95t-42.5 -95t-64 -86t-79 -68l-127 -603q-5 -17 -7 -33.5t-2 -32.5
q0 -43 20.5 -59.5t63.5 -16.5q30 0 55.5 13.5t46.5 37.5t37 57.5t27 72.5h86zM500 1149l-121 387h215l59 -387h-153z" />
    <glyph glyph-name="uhorntilde" unicode="&#x1eef;" horiz-adv-x="1034" 
d="M1120 367q-29 -83 -63 -144t-70.5 -103t-74.5 -68t-74 -40t-69 -19t-60 -5q-88 0 -140 48.5t-63 145.5q-39 -63 -79 -101t-79 -59t-76 -27.5t-69 -6.5q-46 0 -86 14t-69.5 44t-46.5 76t-17 111q0 28 4 61.5t12 72.5l139 657h295l-147 -696q-6 -32 -6 -58q0 -35 13 -59.5
t48 -24.5q30 0 55 13.5t45.5 37.5t36 57.5t27.5 72.5l139 657h214q26 18 42.5 40t26.5 48t13.5 54t3.5 58q0 51 -11 101q24 17 53.5 28.5t57.5 11.5q31 0 53.5 -20t22.5 -70q0 -46 -15.5 -95t-42.5 -95t-64 -86t-79 -68l-127 -603q-5 -17 -7 -33.5t-2 -32.5
q0 -43 20.5 -59.5t63.5 -16.5q30 0 55.5 13.5t46.5 37.5t37 57.5t27 72.5h86zM854 1370q-5 -36 -27.5 -72.5t-56 -66t-75 -48t-84.5 -18.5q-38 0 -70 12t-62 26t-59.5 26t-60.5 12q-55 0 -99 -53l-9 4q35 99 100 150t151 51q40 0 72 -10.5t60 -23.5t56 -23.5t61 -10.5
q28 0 52.5 12t41.5 35z" />
    <glyph glyph-name="Uhornacute" unicode="&#x1ee8;" horiz-adv-x="1466" 
d="M1260 1532h223q33 18 54.5 43t33.5 54.5t17 62t5 67.5q0 56 -12 109q26 18 58 30.5t62 12.5q35 0 58.5 -21.5t23.5 -75.5q0 -56 -20.5 -115t-56 -113t-82.5 -98.5t-100 -69.5l-111 -525q-33 -156 -66 -283.5t-73.5 -228.5t-91.5 -175t-119 -123t-156.5 -73t-203.5 -24
q-111 0 -186.5 21.5t-122 63t-67 102t-20.5 138.5q0 77 14 168t37 195.5t53.5 223t63.5 249.5l68 270q-84 -22 -151 -63.5t-114 -101t-72.5 -136.5t-25.5 -170q0 -41 4.5 -65.5t10 -39t10 -22t4.5 -14.5q-51 0 -92 10t-69 32t-43 58t-15 88q0 72 30 140.5t82.5 129
t125.5 110.5t159 86.5t182 56.5t195 20q26 0 46 -2t52 -8q-48 -176 -86.5 -318.5t-69.5 -256.5t-53.5 -202.5t-37 -158t-22 -123t-7.5 -96.5q0 -88 31.5 -136.5t109.5 -48.5q44 0 80 6.5t68 29.5t60.5 69t58 125.5t61 197t68.5 285.5zM1014 1661l186 387h215l-248 -387h-153
z" />
    <glyph glyph-name="Uhorndotbelow" unicode="&#x1ef0;" horiz-adv-x="1466" 
d="M1260 1532h223q33 18 54.5 43t33.5 54.5t17 62t5 67.5q0 56 -12 109q26 18 58 30.5t62 12.5q35 0 58.5 -21.5t23.5 -75.5q0 -56 -20.5 -115t-56 -113t-82.5 -98.5t-100 -69.5l-111 -525q-33 -156 -66 -283.5t-73.5 -228.5t-91.5 -175t-119 -123t-156.5 -73t-203.5 -24
q-111 0 -186.5 21.5t-122 63t-67 102t-20.5 138.5q0 77 14 168t37 195.5t53.5 223t63.5 249.5l68 270q-84 -22 -151 -63.5t-114 -101t-72.5 -136.5t-25.5 -170q0 -41 4.5 -65.5t10 -39t10 -22t4.5 -14.5q-51 0 -92 10t-69 32t-43 58t-15 88q0 72 30 140.5t82.5 129
t125.5 110.5t159 86.5t182 56.5t195 20q26 0 46 -2t52 -8q-48 -176 -86.5 -318.5t-69.5 -256.5t-53.5 -202.5t-37 -158t-22 -123t-7.5 -96.5q0 -88 31.5 -136.5t109.5 -48.5q44 0 80 6.5t68 29.5t60.5 69t58 125.5t61 197t68.5 285.5zM471 -311q0 34 12.5 63.5t34.5 52
t51.5 35.5t63.5 13t63.5 -13t52 -35.5t35.5 -52t13 -63.5t-13 -63.5t-35.5 -51.5t-52 -34.5t-63.5 -12.5t-63.5 12.5t-51.5 34.5t-34.5 51.5t-12.5 63.5z" />
    <glyph glyph-name="Uhorngrave" unicode="&#x1eea;" horiz-adv-x="1466" 
d="M1260 1532h223q33 18 54.5 43t33.5 54.5t17 62t5 67.5q0 56 -12 109q26 18 58 30.5t62 12.5q35 0 58.5 -21.5t23.5 -75.5q0 -56 -20.5 -115t-56 -113t-82.5 -98.5t-100 -69.5l-111 -525q-33 -156 -66 -283.5t-73.5 -228.5t-91.5 -175t-119 -123t-156.5 -73t-203.5 -24
q-111 0 -186.5 21.5t-122 63t-67 102t-20.5 138.5q0 77 14 168t37 195.5t53.5 223t63.5 249.5l68 270q-84 -22 -151 -63.5t-114 -101t-72.5 -136.5t-25.5 -170q0 -41 4.5 -65.5t10 -39t10 -22t4.5 -14.5q-51 0 -92 10t-69 32t-43 58t-15 88q0 72 30 140.5t82.5 129
t125.5 110.5t159 86.5t182 56.5t195 20q26 0 46 -2t52 -8q-48 -176 -86.5 -318.5t-69.5 -256.5t-53.5 -202.5t-37 -158t-22 -123t-7.5 -96.5q0 -88 31.5 -136.5t109.5 -48.5q44 0 80 6.5t68 29.5t60.5 69t58 125.5t61 197t68.5 285.5zM951 1661l-121 387h215l59 -387h-153z
" />
    <glyph glyph-name="Uhorntilde" unicode="&#x1eee;" horiz-adv-x="1466" 
d="M1260 1532h223q33 18 54.5 43t33.5 54.5t17 62t5 67.5q0 56 -12 109q26 18 58 30.5t62 12.5q35 0 58.5 -21.5t23.5 -75.5q0 -56 -20.5 -115t-56 -113t-82.5 -98.5t-100 -69.5l-111 -525q-33 -156 -66 -283.5t-73.5 -228.5t-91.5 -175t-119 -123t-156.5 -73t-203.5 -24
q-111 0 -186.5 21.5t-122 63t-67 102t-20.5 138.5q0 77 14 168t37 195.5t53.5 223t63.5 249.5l68 270q-84 -22 -151 -63.5t-114 -101t-72.5 -136.5t-25.5 -170q0 -41 4.5 -65.5t10 -39t10 -22t4.5 -14.5q-51 0 -92 10t-69 32t-43 58t-15 88q0 72 30 140.5t82.5 129
t125.5 110.5t159 86.5t182 56.5t195 20q26 0 46 -2t52 -8q-48 -176 -86.5 -318.5t-69.5 -256.5t-53.5 -202.5t-37 -158t-22 -123t-7.5 -96.5q0 -88 31.5 -136.5t109.5 -48.5q44 0 80 6.5t68 29.5t60.5 69t58 125.5t61 197t68.5 285.5zM1511 1882q-8 -36 -38.5 -72.5
t-75.5 -66t-101.5 -48t-114.5 -18.5q-51 0 -95 12t-85 26t-81 26t-83 12q-76 0 -135 -53l-12 4q49 99 136.5 150t205.5 51q55 0 98 -10.5t81.5 -23.5t76 -23.5t82.5 -10.5q38 0 72 12t57 35z" />
    <glyph glyph-name="Ohornacute" unicode="&#x1eda;" horiz-adv-x="1362" 
d="M883 1343q-47 -28 -91.5 -87.5t-84.5 -139t-73.5 -173t-58 -190t-38 -190t-13.5 -172.5q0 -52 7 -95.5t21 -75t36.5 -49t54.5 -17.5q52 0 103.5 40t99.5 109t89 160.5t71 195t47.5 212.5t17.5 212q0 89 -10.5 156.5t-39.5 112.5t-80 67.5t-132 22.5q-117 0 -224 -36.5
t-188.5 -105t-129.5 -166t-48 -219.5q0 -30 3.5 -48.5t7 -30t7 -18.5t3.5 -13q-98 0 -152.5 39t-54.5 133q0 72 31 141t87 131.5t132.5 115t168.5 90.5t195 59.5t211 21.5q110 0 191.5 -26.5t138.5 -74.5q31 19 51.5 43.5t32.5 53.5t16.5 61t4.5 66q0 56 -12 109
q26 18 58 30.5t62 12.5q35 0 58.5 -21.5t23.5 -75.5q0 -50 -16.5 -103t-46 -103t-69 -93t-84.5 -73q40 -66 58 -149.5t18 -180.5q0 -99 -18.5 -213.5t-58 -228t-100 -219t-144.5 -186t-192 -129t-242 -48.5q-81 0 -148 22t-116 71t-76 127.5t-27 190.5q0 83 15.5 186.5
t46.5 210t77.5 208.5t108 181t138.5 127t169 48q26 0 52 -3t55 -14zM813 1661l186 387h215l-247 -387h-154z" />
    <glyph glyph-name="Ohorndotbelow" unicode="&#x1ee2;" horiz-adv-x="1362" 
d="M883 1343q-47 -28 -91.5 -87.5t-84.5 -139t-73.5 -173t-58 -190t-38 -190t-13.5 -172.5q0 -52 7 -95.5t21 -75t36.5 -49t54.5 -17.5q52 0 103.5 40t99.5 109t89 160.5t71 195t47.5 212.5t17.5 212q0 89 -10.5 156.5t-39.5 112.5t-80 67.5t-132 22.5q-117 0 -224 -36.5
t-188.5 -105t-129.5 -166t-48 -219.5q0 -30 3.5 -48.5t7 -30t7 -18.5t3.5 -13q-98 0 -152.5 39t-54.5 133q0 72 31 141t87 131.5t132.5 115t168.5 90.5t195 59.5t211 21.5q110 0 191.5 -26.5t138.5 -74.5q31 19 51.5 43.5t32.5 53.5t16.5 61t4.5 66q0 56 -12 109
q26 18 58 30.5t62 12.5q35 0 58.5 -21.5t23.5 -75.5q0 -50 -16.5 -103t-46 -103t-69 -93t-84.5 -73q40 -66 58 -149.5t18 -180.5q0 -99 -18.5 -213.5t-58 -228t-100 -219t-144.5 -186t-192 -129t-242 -48.5q-81 0 -148 22t-116 71t-76 127.5t-27 190.5q0 83 15.5 186.5
t46.5 210t77.5 208.5t108 181t138.5 127t169 48q26 0 52 -3t55 -14zM371 -311q0 34 12.5 63.5t34.5 52t51.5 35.5t63.5 13t63.5 -13t52 -35.5t35.5 -52t13 -63.5t-13 -63.5t-35.5 -51.5t-52 -34.5t-63.5 -12.5t-63.5 12.5t-51.5 34.5t-34.5 51.5t-12.5 63.5z" />
    <glyph glyph-name="Ohorngrave" unicode="&#x1edc;" horiz-adv-x="1362" 
d="M883 1343q-47 -28 -91.5 -87.5t-84.5 -139t-73.5 -173t-58 -190t-38 -190t-13.5 -172.5q0 -52 7 -95.5t21 -75t36.5 -49t54.5 -17.5q52 0 103.5 40t99.5 109t89 160.5t71 195t47.5 212.5t17.5 212q0 89 -10.5 156.5t-39.5 112.5t-80 67.5t-132 22.5q-117 0 -224 -36.5
t-188.5 -105t-129.5 -166t-48 -219.5q0 -30 3.5 -48.5t7 -30t7 -18.5t3.5 -13q-98 0 -152.5 39t-54.5 133q0 72 31 141t87 131.5t132.5 115t168.5 90.5t195 59.5t211 21.5q110 0 191.5 -26.5t138.5 -74.5q31 19 51.5 43.5t32.5 53.5t16.5 61t4.5 66q0 56 -12 109
q26 18 58 30.5t62 12.5q35 0 58.5 -21.5t23.5 -75.5q0 -50 -16.5 -103t-46 -103t-69 -93t-84.5 -73q40 -66 58 -149.5t18 -180.5q0 -99 -18.5 -213.5t-58 -228t-100 -219t-144.5 -186t-192 -129t-242 -48.5q-81 0 -148 22t-116 71t-76 127.5t-27 190.5q0 83 15.5 186.5
t46.5 210t77.5 208.5t108 181t138.5 127t169 48q26 0 52 -3t55 -14zM739 1661l-121 387h215l59 -387h-153z" />
    <glyph glyph-name="Ohornhookabove" unicode="&#x1ede;" horiz-adv-x="1362" 
d="M883 1343q-47 -28 -91.5 -87.5t-84.5 -139t-73.5 -173t-58 -190t-38 -190t-13.5 -172.5q0 -52 7 -95.5t21 -75t36.5 -49t54.5 -17.5q52 0 103.5 40t99.5 109t89 160.5t71 195t47.5 212.5t17.5 212q0 89 -10.5 156.5t-39.5 112.5t-80 67.5t-132 22.5q-117 0 -224 -36.5
t-188.5 -105t-129.5 -166t-48 -219.5q0 -30 3.5 -48.5t7 -30t7 -18.5t3.5 -13q-98 0 -152.5 39t-54.5 133q0 72 31 141t87 131.5t132.5 115t168.5 90.5t195 59.5t211 21.5q110 0 191.5 -26.5t138.5 -74.5q31 19 51.5 43.5t32.5 53.5t16.5 61t4.5 66q0 56 -12 109
q26 18 58 30.5t62 12.5q35 0 58.5 -21.5t23.5 -75.5q0 -50 -16.5 -103t-46 -103t-69 -93t-84.5 -73q40 -66 58 -149.5t18 -180.5q0 -99 -18.5 -213.5t-58 -228t-100 -219t-144.5 -186t-192 -129t-242 -48.5q-81 0 -148 22t-116 71t-76 127.5t-27 190.5q0 83 15.5 186.5
t46.5 210t77.5 208.5t108 181t138.5 127t169 48q26 0 52 -3t55 -14zM873 1806q23 -5 47 -7t44 -2q47 0 71.5 19.5t24.5 53.5q0 74 -96 74q-34 0 -65 -8t-57 -25l-54 86q35 22 89.5 36t110.5 14q46 0 85 -12t67.5 -33.5t44 -52t15.5 -66.5t-16 -67t-44.5 -54t-68 -38
t-87.5 -19l-15 -83l-96 5v179z" />
    <glyph glyph-name="Ohorntilde" unicode="&#x1ee0;" horiz-adv-x="1362" 
d="M883 1343q-47 -28 -91.5 -87.5t-84.5 -139t-73.5 -173t-58 -190t-38 -190t-13.5 -172.5q0 -52 7 -95.5t21 -75t36.5 -49t54.5 -17.5q52 0 103.5 40t99.5 109t89 160.5t71 195t47.5 212.5t17.5 212q0 89 -10.5 156.5t-39.5 112.5t-80 67.5t-132 22.5q-117 0 -224 -36.5
t-188.5 -105t-129.5 -166t-48 -219.5q0 -30 3.5 -48.5t7 -30t7 -18.5t3.5 -13q-98 0 -152.5 39t-54.5 133q0 72 31 141t87 131.5t132.5 115t168.5 90.5t195 59.5t211 21.5q110 0 191.5 -26.5t138.5 -74.5q31 19 51.5 43.5t32.5 53.5t16.5 61t4.5 66q0 56 -12 109
q26 18 58 30.5t62 12.5q35 0 58.5 -21.5t23.5 -75.5q0 -50 -16.5 -103t-46 -103t-69 -93t-84.5 -73q40 -66 58 -149.5t18 -180.5q0 -99 -18.5 -213.5t-58 -228t-100 -219t-144.5 -186t-192 -129t-242 -48.5q-81 0 -148 22t-116 71t-76 127.5t-27 190.5q0 83 15.5 186.5
t46.5 210t77.5 208.5t108 181t138.5 127t169 48q26 0 52 -3t55 -14zM1214 1882q-6 -36 -33 -72.5t-67 -66t-89.5 -48t-101.5 -18.5q-46 0 -85 12t-75 26t-71 26t-72 12q-68 0 -121 -53l-10 4q44 99 121.5 150t180.5 51q49 0 87 -10.5t72 -23.5t67.5 -23.5t72.5 -10.5
q34 0 63.5 12t50.5 35z" />
    <glyph glyph-name="Abrevehookabove" unicode="&#x1eb2;" 
d="M446 -233q-41 0 -88.5 4t-89 24.5t-69 64.5t-27.5 124q0 68 21.5 163t61.5 204.5t95 229t123 236.5q-97 -6 -158.5 -29.5t-81.5 -76.5q8 0 17.5 -20.5t9.5 -43.5q0 -37 -33.5 -58.5t-81.5 -21.5q-27 0 -50 7.5t-40 22t-27 37t-10 52.5q0 52 31.5 98t87.5 80t132.5 54
t166.5 20q42 0 107 -6q78 123 165 232.5t179 192t185 131t183 48.5q36 0 80.5 -6t81.5 -23l-321 -1507h-295l157 743q-78 36 -142.5 52t-131.5 22q-58 -125 -106.5 -257t-84 -256.5t-55.5 -233.5t-20 -189q0 -49 8.5 -74.5t19.5 -39.5zM1249 1879q17 -5 34 -7t30 -2
q68 0 68 55q0 51 -68 51q-49 0 -86 -23l-37 59q24 16 62 26t76 10q67 0 109 -32t42 -83t-42.5 -85.5t-112.5 -39.5l-6 -59l-69 4v126zM1637 1840q-7 -50 -38.5 -93.5t-80.5 -75.5t-111.5 -50t-131.5 -18q-129 0 -195.5 60t-66.5 177h123q0 -34 14 -60.5t37 -44.5t52.5 -27.5
t61.5 -9.5q36 0 73 11t68 30.5t52.5 45t25.5 55.5h117zM1096 1391q-46 -25 -93.5 -71.5t-94 -110t-92.5 -141t-89 -163.5q62 -12 126 -29.5t124 -41.5z" />
    <glyph glyph-name="Ocircumflexhookabove" unicode="&#x1ed4;" horiz-adv-x="1362" 
d="M883 1343q-47 -28 -91.5 -87.5t-84.5 -139t-73.5 -173t-58 -190t-38 -190t-13.5 -172.5q0 -52 7 -95.5t21 -75t36.5 -49t54.5 -17.5q52 0 103.5 40t99.5 109t89 160.5t71 195t47.5 212.5t17.5 212q0 89 -10.5 156.5t-39.5 112.5t-80 67.5t-132 22.5q-117 0 -224 -36.5
t-188.5 -105t-129.5 -166t-48 -219.5q0 -30 3.5 -48.5t7 -30t7 -18.5t3.5 -13q-98 0 -152.5 39t-54.5 133q0 72 31 141t87 131.5t132.5 115t168.5 90.5t195 59.5t211 21.5q135 0 227.5 -39t149.5 -108.5t82.5 -166t25.5 -210.5q0 -99 -18.5 -213.5t-58 -228t-100 -219
t-144.5 -186t-192 -129t-242 -48.5q-81 0 -148 22t-116 71t-76 127.5t-27 190.5q0 83 15.5 186.5t46.5 210t77.5 208.5t108 181t138.5 127t169 48q26 0 52 -3t55 -14zM1073 1661l-66 147l-226 -147h-120l365 285h36l103 -285h-92zM1219 1879q17 -5 34 -7t30 -2q68 0 68 55
q0 51 -68 51q-49 0 -86 -23l-37 59q24 16 62 26t76 10q67 0 109 -32t42 -83t-42.5 -85.5t-112.5 -39.5l-6 -59l-69 4v126z" />
    <glyph glyph-name="Acircumflexhookabove" unicode="&#x1ea8;" 
d="M801 0l157 743q-78 36 -142.5 52t-131.5 22q-58 -125 -106.5 -257t-84 -256.5t-55.5 -233.5t-20 -189q0 -49 8.5 -74.5t19.5 -39.5q-41 0 -88.5 4t-89 24.5t-69 64.5t-27.5 124q0 68 21.5 163t61.5 204.5t95 229t123 236.5q-97 -6 -158.5 -29.5t-81.5 -76.5
q8 0 17.5 -20.5t9.5 -43.5q0 -37 -33.5 -58.5t-81.5 -21.5q-27 0 -50 7.5t-40 22t-27 37t-10 52.5q0 52 31.5 98t87.5 80t132.5 54t166.5 20q42 0 107 -6q78 123 165 232.5t179 192t185 131t183 48.5q36 0 80.5 -6t81.5 -23l-321 -1507h-295zM1096 1391q-46 -25 -93.5 -71.5
t-94 -110t-92.5 -141t-89 -163.5q62 -12 126 -29.5t124 -41.5zM1414 1661l-66 147l-226 -147h-120l365 285h36l103 -285h-92zM1529 1879q17 -5 34 -7t30 -2q68 0 68 55q0 51 -68 51q-49 0 -86 -23l-37 59q24 16 62 26t76 10q67 0 109 -32t42 -83t-42.5 -85.5t-112.5 -39.5
l-6 -59l-69 4v126z" />
    <glyph glyph-name="Ahookabove" unicode="&#x1ea2;" 
d="M801 0l157 743q-78 36 -142.5 52t-131.5 22q-58 -125 -106.5 -257t-84 -256.5t-55.5 -233.5t-20 -189q0 -49 8.5 -74.5t19.5 -39.5q-41 0 -88.5 4t-89 24.5t-69 64.5t-27.5 124q0 68 21.5 163t61.5 204.5t95 229t123 236.5q-97 -6 -158.5 -29.5t-81.5 -76.5
q8 0 17.5 -20.5t9.5 -43.5q0 -37 -33.5 -58.5t-81.5 -21.5q-27 0 -50 7.5t-40 22t-27 37t-10 52.5q0 52 31.5 98t87.5 80t132.5 54t166.5 20q42 0 107 -6q78 123 165 232.5t179 192t185 131t183 48.5q36 0 80.5 -6t81.5 -23l-321 -1507h-295zM1096 1391q-46 -25 -93.5 -71.5
t-94 -110t-92.5 -141t-89 -163.5q62 -12 126 -29.5t124 -41.5zM1193 1806q23 -5 47 -7t44 -2q47 0 71.5 19.5t24.5 53.5q0 74 -96 74q-34 0 -65 -8t-57 -25l-54 86q35 22 89.5 36t110.5 14q46 0 85 -12t67.5 -33.5t44 -52t15.5 -66.5t-16 -67t-44.5 -54t-68 -38t-87.5 -19
l-15 -83l-96 5v179z" />
    <glyph glyph-name="Ecircumflexhookabove" unicode="&#x1ec2;" horiz-adv-x="940" 
d="M991 348q-41 -90 -104.5 -161t-143 -121t-169.5 -76.5t-183 -26.5q-99 0 -170.5 29.5t-117 79.5t-67.5 115t-22 137q0 81 26 165t74.5 157.5t119 129t159.5 78.5q-66 48 -95.5 112.5t-29.5 133.5q0 79 33.5 157.5t93 141.5t142 102t180.5 39q61 0 114.5 -16.5t93.5 -48.5
t62.5 -80t22.5 -111q0 -46 -12 -85t-33 -67.5t-48.5 -44.5t-58.5 -16q-56 0 -96 55q18 6 34.5 25t29 44t19.5 54t7 56q0 31 -10 53t-25.5 35.5t-36 19.5t-41.5 6q-46 0 -84.5 -25t-66 -65.5t-43 -92.5t-15.5 -106q0 -45 11.5 -88t36.5 -79.5t64.5 -64t94.5 -42.5
q-55 -12 -103.5 -40t-89 -66.5t-72.5 -85.5t-54.5 -97.5t-34.5 -101.5t-12 -98q0 -43 11 -81t34 -66t60 -44t89 -16q47 0 101.5 13t106.5 39.5t97 65.5t74 91zM904 1661l-66 147l-226 -147h-120l365 285h36l103 -285h-92zM1049 1879q17 -5 34 -7t30 -2q68 0 68 55
q0 51 -68 51q-49 0 -86 -23l-37 59q24 16 62 26t76 10q67 0 109 -32t42 -83t-42.5 -85.5t-112.5 -39.5l-6 -59l-69 4v126z" />
    <glyph glyph-name="Ehookabove" unicode="&#x1eba;" horiz-adv-x="940" 
d="M991 348q-41 -90 -104.5 -161t-143 -121t-169.5 -76.5t-183 -26.5q-99 0 -170.5 29.5t-117 79.5t-67.5 115t-22 137q0 81 26 165t74.5 157.5t119 129t159.5 78.5q-66 48 -95.5 112.5t-29.5 133.5q0 79 33.5 157.5t93 141.5t142 102t180.5 39q61 0 114.5 -16.5t93.5 -48.5
t62.5 -80t22.5 -111q0 -46 -12 -85t-33 -67.5t-48.5 -44.5t-58.5 -16q-56 0 -96 55q18 6 34.5 25t29 44t19.5 54t7 56q0 31 -10 53t-25.5 35.5t-36 19.5t-41.5 6q-46 0 -84.5 -25t-66 -65.5t-43 -92.5t-15.5 -106q0 -45 11.5 -88t36.5 -79.5t64.5 -64t94.5 -42.5
q-55 -12 -103.5 -40t-89 -66.5t-72.5 -85.5t-54.5 -97.5t-34.5 -101.5t-12 -98q0 -43 11 -81t34 -66t60 -44t89 -16q47 0 101.5 13t106.5 39.5t97 65.5t74 91zM693 1806q23 -5 47 -7t44 -2q47 0 71.5 19.5t24.5 53.5q0 74 -96 74q-34 0 -65 -8t-57 -25l-54 86q35 22 89.5 36
t110.5 14q46 0 85 -12t67.5 -33.5t44 -52t15.5 -66.5t-16 -67t-44.5 -54t-68 -38t-87.5 -19l-15 -83l-96 5v179z" />
    <glyph glyph-name="Ihookabove" unicode="&#x1ec8;" horiz-adv-x="768" 
d="M193 0l296 1391q-136 -56 -211 -168t-75 -279q0 -39 4.5 -63.5t9.5 -39t9.5 -22.5t4.5 -14q-53 0 -94 10.5t-68.5 33.5t-42 61t-14.5 94q0 68 29.5 134t81 125t121 109t149 86.5t166 57t172.5 20.5q23 0 42.5 -1t39.5 -3l-326 -1532h-294zM613 1806q23 -5 47 -7t44 -2
q47 0 71.5 19.5t24.5 53.5q0 74 -96 74q-34 0 -65 -8t-57 -25l-54 86q35 22 89.5 36t110.5 14q46 0 85 -12t67.5 -33.5t44 -52t15.5 -66.5t-16 -67t-44.5 -54t-68 -38t-87.5 -19l-15 -83l-96 5v179z" />
    <glyph glyph-name="Ohookabove" unicode="&#x1ece;" horiz-adv-x="1362" 
d="M883 1343q-47 -28 -91.5 -87.5t-84.5 -139t-73.5 -173t-58 -190t-38 -190t-13.5 -172.5q0 -52 7 -95.5t21 -75t36.5 -49t54.5 -17.5q52 0 103.5 40t99.5 109t89 160.5t71 195t47.5 212.5t17.5 212q0 89 -10.5 156.5t-39.5 112.5t-80 67.5t-132 22.5q-117 0 -224 -36.5
t-188.5 -105t-129.5 -166t-48 -219.5q0 -30 3.5 -48.5t7 -30t7 -18.5t3.5 -13q-98 0 -152.5 39t-54.5 133q0 72 31 141t87 131.5t132.5 115t168.5 90.5t195 59.5t211 21.5q135 0 227.5 -39t149.5 -108.5t82.5 -166t25.5 -210.5q0 -99 -18.5 -213.5t-58 -228t-100 -219
t-144.5 -186t-192 -129t-242 -48.5q-81 0 -148 22t-116 71t-76 127.5t-27 190.5q0 83 15.5 186.5t46.5 210t77.5 208.5t108 181t138.5 127t169 48q26 0 52 -3t55 -14zM873 1806q23 -5 47 -7t44 -2q47 0 71.5 19.5t24.5 53.5q0 74 -96 74q-34 0 -65 -8t-57 -25l-54 86
q35 22 89.5 36t110.5 14q46 0 85 -12t67.5 -33.5t44 -52t15.5 -66.5t-16 -67t-44.5 -54t-68 -38t-87.5 -19l-15 -83l-96 5v179z" />
    <glyph glyph-name="Uhookabove" unicode="&#x1ee6;" horiz-adv-x="1466" 
d="M1260 1532h289l-136 -639q-33 -156 -66 -283.5t-73.5 -228.5t-91.5 -175t-119 -123t-156.5 -73t-203.5 -24q-111 0 -186.5 21.5t-122 63t-67 102t-20.5 138.5q0 77 14 168t37 195.5t53.5 223t63.5 249.5l68 270q-84 -22 -151 -63.5t-114 -101t-72.5 -136.5t-25.5 -170
q0 -41 4.5 -65.5t10 -39t10 -22t4.5 -14.5q-51 0 -92 10t-69 32t-43 58t-15 88q0 72 30 140.5t82.5 129t125.5 110.5t159 86.5t182 56.5t195 20q26 0 46 -2t52 -8q-48 -176 -86.5 -318.5t-69.5 -256.5t-53.5 -202.5t-37 -158t-22 -123t-7.5 -96.5q0 -88 31.5 -136.5
t109.5 -48.5q44 0 80 6.5t68 29.5t60.5 69t58 125.5t61 197t68.5 285.5zM1023 1806q23 -5 47 -7t44 -2q47 0 71.5 19.5t24.5 53.5q0 74 -96 74q-34 0 -65 -8t-57 -25l-54 86q35 22 89.5 36t110.5 14q46 0 85 -12t67.5 -33.5t44 -52t15.5 -66.5t-16 -67t-44.5 -54t-68 -38
t-87.5 -19l-15 -83l-96 5v179z" />
    <glyph glyph-name="Uhornhookabove" unicode="&#x1eec;" horiz-adv-x="1466" 
d="M1260 1532h223q33 18 54.5 43t33.5 54.5t17 62t5 67.5q0 56 -12 109q26 18 58 30.5t62 12.5q35 0 58.5 -21.5t23.5 -75.5q0 -56 -20.5 -115t-56 -113t-82.5 -98.5t-100 -69.5l-111 -525q-33 -156 -66 -283.5t-73.5 -228.5t-91.5 -175t-119 -123t-156.5 -73t-203.5 -24
q-111 0 -186.5 21.5t-122 63t-67 102t-20.5 138.5q0 77 14 168t37 195.5t53.5 223t63.5 249.5l68 270q-84 -22 -151 -63.5t-114 -101t-72.5 -136.5t-25.5 -170q0 -41 4.5 -65.5t10 -39t10 -22t4.5 -14.5q-51 0 -92 10t-69 32t-43 58t-15 88q0 72 30 140.5t82.5 129
t125.5 110.5t159 86.5t182 56.5t195 20q26 0 46 -2t52 -8q-48 -176 -86.5 -318.5t-69.5 -256.5t-53.5 -202.5t-37 -158t-22 -123t-7.5 -96.5q0 -88 31.5 -136.5t109.5 -48.5q44 0 80 6.5t68 29.5t60.5 69t58 125.5t61 197t68.5 285.5zM1023 1806q23 -5 47 -7t44 -2
q47 0 71.5 19.5t24.5 53.5q0 74 -96 74q-34 0 -65 -8t-57 -25l-54 86q35 22 89.5 36t110.5 14q46 0 85 -12t67.5 -33.5t44 -52t15.5 -66.5t-16 -67t-44.5 -54t-68 -38t-87.5 -19l-15 -83l-96 5v179z" />
    <glyph glyph-name="Yhookabove" unicode="&#x1ef6;" horiz-adv-x="1270" 
d="M569 0l136 631l-197 768q-144 -54 -224.5 -169t-80.5 -286q0 -39 4.5 -63.5t9.5 -39t9.5 -22.5t4.5 -14q-53 0 -94 10.5t-68.5 33.5t-42 61t-14.5 94q0 68 29.5 134t81 125t121 109t149 86.5t166 57t172.5 20.5q23 0 42.5 -1t39.5 -3l178 -733l303 727h136l-398 -895
l-135 -631h-328zM1023 1806q23 -5 47 -7t44 -2q47 0 71.5 19.5t24.5 53.5q0 74 -96 74q-34 0 -65 -8t-57 -25l-54 86q35 22 89.5 36t110.5 14q46 0 85 -12t67.5 -33.5t44 -52t15.5 -66.5t-16 -67t-44.5 -54t-68 -38t-87.5 -19l-15 -83l-96 5v179z" />
    <glyph glyph-name="abrevehookabove" unicode="&#x1eb3;" horiz-adv-x="1077" 
d="M1163 367q-29 -83 -63 -144t-70.5 -103t-74.5 -68t-74 -40t-69 -19t-60 -5q-87 0 -138.5 47.5t-62.5 140.5q-25 -35 -55 -68.5t-67 -60t-82.5 -43t-100.5 -16.5q-53 0 -102 17t-87 56t-61 102t-23 154q0 70 14 150t43 160t72.5 153.5t102 130t132.5 90t163 33.5
q87 0 126.5 -30t39.5 -74v-15l22 109h295l-147 -696q-5 -17 -7 -33.5t-2 -32.5q0 -88 84 -88q30 0 55.5 15.5t46.5 41.5t37 61.5t27 74.5h86zM647 829q0 9 -4 22.5t-13.5 26t-25.5 21t-41 8.5q-43 0 -81.5 -28t-70.5 -74.5t-57 -105.5t-42.5 -121.5t-26.5 -123t-9 -108.5
q0 -59 11 -91t26.5 -47.5t33.5 -18.5t32 -3q23 0 48.5 11.5t49 34t43 56.5t29.5 79zM1010 1454q-8 -53 -41 -99t-84.5 -80t-117.5 -53t-139 -19q-135 0 -205.5 63.5t-70.5 187.5h162q0 -73 37 -111.5t106 -38.5q37 0 71 11.5t60.5 32t44 47.5t21.5 59h156zM623 1549
q17 -5 34 -7t30 -2q68 0 68 55q0 51 -68 51q-49 0 -86 -23l-37 59q24 16 62 26t76 10q67 0 109 -32t42 -83t-42.5 -85.5t-112.5 -39.5l-6 -59l-69 4v126z" />
    <glyph glyph-name="acircumflexhookabove" unicode="&#x1ea9;" horiz-adv-x="1077" 
d="M1163 367q-29 -83 -63 -144t-70.5 -103t-74.5 -68t-74 -40t-69 -19t-60 -5q-87 0 -138.5 47.5t-62.5 140.5q-25 -35 -55 -68.5t-67 -60t-82.5 -43t-100.5 -16.5q-53 0 -102 17t-87 56t-61 102t-23 154q0 70 14 150t43 160t72.5 153.5t102 130t132.5 90t163 33.5
q87 0 126.5 -30t39.5 -74v-15l22 109h295l-147 -696q-5 -17 -7 -33.5t-2 -32.5q0 -88 84 -88q30 0 55.5 15.5t46.5 41.5t37 61.5t27 74.5h86zM647 829q0 9 -4 22.5t-13.5 26t-25.5 21t-41 8.5q-43 0 -81.5 -28t-70.5 -74.5t-57 -105.5t-42.5 -121.5t-26.5 -123t-9 -108.5
q0 -59 11 -91t26.5 -47.5t33.5 -18.5t32 -3q23 0 48.5 11.5t49 34t43 56.5t29.5 79zM837 1173l-109 145l-284 -145h-80l383 341h38l109 -341h-57zM923 1519q17 -5 34 -7t30 -2q68 0 68 55q0 51 -68 51q-49 0 -86 -23l-37 59q24 16 62 26t76 10q67 0 109 -32t42 -83
t-42.5 -85.5t-112.5 -39.5l-6 -59l-69 4v126z" />
    <glyph glyph-name="ahookabove" unicode="&#x1ea3;" horiz-adv-x="1077" 
d="M1163 367q-29 -83 -63 -144t-70.5 -103t-74.5 -68t-74 -40t-69 -19t-60 -5q-87 0 -138.5 47.5t-62.5 140.5q-25 -35 -55 -68.5t-67 -60t-82.5 -43t-100.5 -16.5q-53 0 -102 17t-87 56t-61 102t-23 154q0 70 14 150t43 160t72.5 153.5t102 130t132.5 90t163 33.5
q87 0 126.5 -30t39.5 -74v-15l22 109h295l-147 -696q-5 -17 -7 -33.5t-2 -32.5q0 -88 84 -88q30 0 55.5 15.5t46.5 41.5t37 61.5t27 74.5h86zM647 829q0 9 -4 22.5t-13.5 26t-25.5 21t-41 8.5q-43 0 -81.5 -28t-70.5 -74.5t-57 -105.5t-42.5 -121.5t-26.5 -123t-9 -108.5
q0 -59 11 -91t26.5 -47.5t33.5 -18.5t32 -3q23 0 48.5 11.5t49 34t43 56.5t29.5 79zM612 1333q23 -5 47 -7t44 -2q47 0 71.5 22t24.5 56q0 38 -24 59t-72 21q-34 0 -65 -8t-57 -25l-54 86q35 22 89.5 36t110.5 14q46 0 85 -13t67.5 -35.5t44 -54t15.5 -67.5t-16 -67.5
t-44.5 -56t-68 -40t-87.5 -19.5l-15 -83l-96 5v179z" />
    <glyph glyph-name="ecircumflexhookabove" unicode="&#x1ec3;" horiz-adv-x="786" 
d="M856 367q-43 -72 -98.5 -140t-125 -121t-154 -85.5t-185.5 -32.5q-73 0 -132 18.5t-101 57.5t-64.5 100.5t-22.5 148.5q0 59 12 136t38 158t69 159t104 139.5t143 99t187 37.5q69 0 112.5 -16.5t69 -43.5t35 -62.5t9.5 -73.5q0 -89 -39 -165.5t-104.5 -133.5t-150.5 -92
t-177 -41q-2 -23 -3.5 -43.5t-1.5 -38.5q0 -52 9.5 -85.5t28 -52.5t46 -26.5t64.5 -7.5q61 0 110.5 16t92.5 44t81.5 66t77.5 81h70zM297 512q58 4 112 33t95 75.5t65.5 106t24.5 123.5q0 38 -11 61t-40 23q-39 0 -76.5 -37.5t-70.5 -97.5t-58.5 -135.5t-40.5 -151.5z
M737 1173l-109 145l-284 -145h-80l383 341h38l109 -341h-57zM793 1519q17 -5 34 -7t30 -2q68 0 68 55q0 51 -68 51q-49 0 -86 -23l-37 59q24 16 62 26t76 10q67 0 109 -32t42 -83t-42.5 -85.5t-112.5 -39.5l-6 -59l-69 4v126z" />
    <glyph glyph-name="ehookabove" unicode="&#x1ebb;" horiz-adv-x="786" 
d="M856 367q-43 -72 -98.5 -140t-125 -121t-154 -85.5t-185.5 -32.5q-73 0 -132 18.5t-101 57.5t-64.5 100.5t-22.5 148.5q0 59 12 136t38 158t69 159t104 139.5t143 99t187 37.5q69 0 112.5 -16.5t69 -43.5t35 -62.5t9.5 -73.5q0 -89 -39 -165.5t-104.5 -133.5t-150.5 -92
t-177 -41q-2 -23 -3.5 -43.5t-1.5 -38.5q0 -52 9.5 -85.5t28 -52.5t46 -26.5t64.5 -7.5q61 0 110.5 16t92.5 44t81.5 66t77.5 81h70zM297 512q58 4 112 33t95 75.5t65.5 106t24.5 123.5q0 38 -11 61t-40 23q-39 0 -76.5 -37.5t-70.5 -97.5t-58.5 -135.5t-40.5 -151.5z
M452 1333q23 -5 47 -7t44 -2q47 0 71.5 22t24.5 56q0 38 -24 59t-72 21q-34 0 -65 -8t-57 -25l-54 86q35 22 89.5 36t110.5 14q46 0 85 -13t67.5 -35.5t44 -54t15.5 -67.5t-16 -67.5t-44.5 -56t-68 -40t-87.5 -19.5l-15 -83l-96 5v179z" />
    <glyph glyph-name="ihookabove" unicode="&#x1ec9;" horiz-adv-x="547" 
d="M633 367q-29 -83 -64.5 -144t-74 -103t-79 -68t-78.5 -40t-72.5 -19t-61.5 -5q-46 0 -86 14t-69.5 44t-46.5 76t-17 111q0 28 4 61.5t12 72.5l139 657h295l-147 -696q-5 -17 -6.5 -33.5t-1.5 -32.5q0 -43 20 -59.5t63 -16.5q30 0 58.5 13.5t52.5 37.5t43 57.5t31 72.5h86
zM252 1333q23 -5 47 -7t44 -2q47 0 71.5 22t24.5 56q0 38 -24 59t-72 21q-34 0 -65 -8t-57 -25l-54 86q35 22 89.5 36t110.5 14q46 0 85 -13t67.5 -35.5t44 -54t15.5 -67.5t-16 -67.5t-44.5 -56t-68 -40t-87.5 -19.5l-15 -83l-96 5v179z" />
    <glyph glyph-name="ocircumflexhookabove" unicode="&#x1ed5;" horiz-adv-x="887" 
d="M1139 778q-60 -63 -155 -107t-208 -63q-12 -142 -54.5 -256t-107.5 -194t-149 -123t-178 -43q-72 0 -132 17.5t-103.5 56t-68 100t-24.5 149.5q0 60 12.5 136.5t39.5 157.5t71 158.5t106 138.5t144.5 98.5t187.5 37.5q262 0 262 -327v-2q5 -2 10 -2h13q36 0 77.5 10.5
t83 27.5t81.5 39.5t73 45.5zM606 602q-32 8 -43.5 31.5t-11.5 54.5q0 43 17 70.5t46 40.5q-2 33 -6.5 55.5t-13.5 37t-22.5 20.5t-34.5 6q-37 0 -71 -28.5t-64.5 -75.5t-55.5 -107.5t-43.5 -124.5t-28.5 -126.5t-10 -113.5t5.5 -83t18 -50.5t32.5 -25.5t49 -7q37 0 74.5 33
t69.5 90t56.5 135t36.5 168zM737 1173l-109 145l-284 -145h-80l383 341h38l109 -341h-57zM813 1519q17 -5 34 -7t30 -2q68 0 68 55q0 51 -68 51q-49 0 -86 -23l-37 59q24 16 62 26t76 10q67 0 109 -32t42 -83t-42.5 -85.5t-112.5 -39.5l-6 -59l-69 4v126z" />
    <glyph glyph-name="ohookabove" unicode="&#x1ecf;" horiz-adv-x="887" 
d="M1139 778q-60 -63 -155 -107t-208 -63q-12 -142 -54.5 -256t-107.5 -194t-149 -123t-178 -43q-72 0 -132 17.5t-103.5 56t-68 100t-24.5 149.5q0 60 12.5 136.5t39.5 157.5t71 158.5t106 138.5t144.5 98.5t187.5 37.5q262 0 262 -327v-2q5 -2 10 -2h13q36 0 77.5 10.5
t83 27.5t81.5 39.5t73 45.5zM606 602q-32 8 -43.5 31.5t-11.5 54.5q0 43 17 70.5t46 40.5q-2 33 -6.5 55.5t-13.5 37t-22.5 20.5t-34.5 6q-37 0 -71 -28.5t-64.5 -75.5t-55.5 -107.5t-43.5 -124.5t-28.5 -126.5t-10 -113.5t5.5 -83t18 -50.5t32.5 -25.5t49 -7q37 0 74.5 33
t69.5 90t56.5 135t36.5 168zM502 1333q23 -5 47 -7t44 -2q47 0 71.5 22t24.5 56q0 38 -24 59t-72 21q-34 0 -65 -8t-57 -25l-54 86q35 22 89.5 36t110.5 14q46 0 85 -13t67.5 -35.5t44 -54t15.5 -67.5t-16 -67.5t-44.5 -56t-68 -40t-87.5 -19.5l-15 -83l-96 5v179z" />
    <glyph glyph-name="ohornhookabove" unicode="&#x1edf;" horiz-adv-x="899" 
d="M797 695q0 -149 -40.5 -277t-111 -222.5t-167 -148.5t-207.5 -54q-146 0 -221.5 92.5t-75.5 269.5q0 93 20 180t57 163t88.5 139t113.5 107.5t133.5 69.5t148.5 25q127 0 191 -73q30 17 49 40t30.5 50t15.5 56.5t4 61.5q0 51 -11 101q24 17 53.5 28.5t57.5 11.5
q31 0 53.5 -20t22.5 -70t-17.5 -102.5t-48.5 -101t-72 -89t-87 -65.5q21 -71 21 -172zM554 927q-32 0 -64.5 -24.5t-63 -67t-57.5 -99t-47 -121.5t-31.5 -134t-11.5 -136q0 -84 19 -122t61 -38q33 0 66.5 23t63.5 64t56.5 96.5t45.5 119.5t30 135t11 142q0 77 -20.5 119.5
t-57.5 42.5zM502 1333q23 -5 47 -7t44 -2q47 0 71.5 22t24.5 56q0 38 -24 59t-72 21q-34 0 -65 -8t-57 -25l-54 86q35 22 89.5 36t110.5 14q46 0 85 -13t67.5 -35.5t44 -54t15.5 -67.5t-16 -67.5t-44.5 -56t-68 -40t-87.5 -19.5l-15 -83l-96 5v179z" />
    <glyph glyph-name="uhookabove" unicode="&#x1ee7;" horiz-adv-x="1034" 
d="M1120 367q-29 -83 -63 -144t-70.5 -103t-74.5 -68t-74 -40t-69 -19t-60 -5q-88 0 -140 48.5t-63 145.5q-39 -63 -79 -101t-79 -59t-76 -27.5t-69 -6.5q-46 0 -86 14t-69.5 44t-46.5 76t-17 111q0 28 4 61.5t12 72.5l139 657h295l-147 -696q-6 -32 -6 -58q0 -35 13 -59.5
t48 -24.5q30 0 55 13.5t45.5 37.5t36 57.5t27.5 72.5l139 657h295l-147 -696q-5 -17 -7 -33.5t-2 -32.5q0 -43 20.5 -59.5t63.5 -16.5q30 0 55.5 13.5t46.5 37.5t37 57.5t27 72.5h86zM472 1333q23 -5 47 -7t44 -2q47 0 71.5 22t24.5 56q0 38 -24 59t-72 21q-34 0 -65 -8
t-57 -25l-54 86q35 22 89.5 36t110.5 14q46 0 85 -13t67.5 -35.5t44 -54t15.5 -67.5t-16 -67.5t-44.5 -56t-68 -40t-87.5 -19.5l-15 -83l-96 5v179z" />
    <glyph glyph-name="uhornhookabove" unicode="&#x1eed;" horiz-adv-x="1034" 
d="M1120 367q-29 -83 -63 -144t-70.5 -103t-74.5 -68t-74 -40t-69 -19t-60 -5q-88 0 -140 48.5t-63 145.5q-39 -63 -79 -101t-79 -59t-76 -27.5t-69 -6.5q-46 0 -86 14t-69.5 44t-46.5 76t-17 111q0 28 4 61.5t12 72.5l139 657h295l-147 -696q-6 -32 -6 -58q0 -35 13 -59.5
t48 -24.5q30 0 55 13.5t45.5 37.5t36 57.5t27.5 72.5l139 657h214q26 18 42.5 40t26.5 48t13.5 54t3.5 58q0 51 -11 101q24 17 53.5 28.5t57.5 11.5q31 0 53.5 -20t22.5 -70q0 -46 -15.5 -95t-42.5 -95t-64 -86t-79 -68l-127 -603q-5 -17 -7 -33.5t-2 -32.5
q0 -43 20.5 -59.5t63.5 -16.5q30 0 55.5 13.5t46.5 37.5t37 57.5t27 72.5h86zM472 1333q23 -5 47 -7t44 -2q47 0 71.5 22t24.5 56q0 38 -24 59t-72 21q-34 0 -65 -8t-57 -25l-54 86q35 22 89.5 36t110.5 14q46 0 85 -13t67.5 -35.5t44 -54t15.5 -67.5t-16 -67.5t-44.5 -56
t-68 -40t-87.5 -19.5l-15 -83l-96 5v179z" />
    <glyph glyph-name="yhookabove" unicode="&#x1ef7;" horiz-adv-x="1034" 
d="M688 -164q-22 -110 -63.5 -178t-92.5 -106t-106.5 -51t-106.5 -13q-47 0 -88.5 12.5t-72.5 37t-49.5 62t-18.5 87.5q0 64 30.5 113t78.5 85.5t107.5 62.5t117.5 44l25 110q-33 -36 -66 -58.5t-64 -34.5t-60 -16.5t-56 -4.5q-46 0 -86 14t-69.5 44t-46.5 76t-17 111
q0 28 4 61.5t12 72.5l139 657h295l-147 -696q-6 -26 -6 -52q0 -18 3 -34t10 -28.5t18.5 -20t29.5 -7.5q28 0 52.5 12.5t44.5 35t35.5 53.5t27.5 67l143 670h295l-203 -950q47 16 85 38.5t69.5 57t57 82.5t46.5 115h86q-31 -102 -73.5 -170t-90.5 -111.5t-99 -66.5t-99 -35z
M403 -111q-40 -15 -76 -32.5t-63.5 -38.5t-44 -46.5t-16.5 -56.5q0 -11 4 -23t12.5 -22t21.5 -16t31 -6q32 0 65.5 44.5t53.5 137.5zM472 1333q23 -5 47 -7t44 -2q47 0 71.5 22t24.5 56q0 38 -24 59t-72 21q-34 0 -65 -8t-57 -25l-54 86q35 22 89.5 36t110.5 14q46 0 85 -13
t67.5 -35.5t44 -54t15.5 -67.5t-16 -67.5t-44.5 -56t-68 -40t-87.5 -19.5l-15 -83l-96 5v179z" />
  </font>
</defs>
</svg>
